<svg width="22" height="19" viewBox="0 0 22 19" fill="none" xmlns="http://www.w3.org/2000/svg">
<path d="M20.9628 0.739379C20.8981 0.683476 20.8194 0.646326 20.7351 0.63195C20.6509 0.617574 20.5643 0.626519 20.4847 0.657817L1.48532 8.09313C1.29164 8.16831 1.12764 8.30441 1.01805 8.48092C0.908452 8.65742 0.8592 8.86477 0.877714 9.0717C0.896228 9.27864 0.981505 9.47395 1.12069 9.6282C1.25988 9.78245 1.44543 9.88727 1.64938 9.92688L6.87501 10.9525V16.75C6.87498 16.9743 6.94199 17.1935 7.06744 17.3794C7.1929 17.5653 7.37107 17.7095 7.57907 17.7934C7.71292 17.8471 7.85578 17.8748 8.00001 17.875C8.15096 17.8747 8.30031 17.8439 8.43915 17.7847C8.57798 17.7254 8.70347 17.6388 8.80813 17.53L11.4331 14.8113L15.4644 18.3466C15.6687 18.5268 15.9316 18.6267 16.2041 18.6278C16.3231 18.6273 16.4413 18.6087 16.5547 18.5725C16.7403 18.5137 16.9072 18.4073 17.0388 18.2639C17.1704 18.1204 17.2621 17.945 17.3047 17.755L21.1128 1.19875C21.1319 1.11578 21.128 1.02918 21.1016 0.948247C21.0752 0.867315 21.0272 0.795109 20.9628 0.739379ZM1.62501 9.00438C1.61951 8.95903 1.62972 8.91317 1.65395 8.87444C1.67818 8.83571 1.71495 8.80646 1.75813 8.79157L18.1316 2.38375L7.16282 10.2447L1.79469 9.19094C1.74919 9.18428 1.70741 9.16204 1.67647 9.12802C1.64553 9.094 1.62734 9.05031 1.62501 9.00438ZM8.26907 17.0088C8.21722 17.0622 8.15066 17.0989 8.07785 17.1144C8.00503 17.1298 7.92927 17.1233 7.8602 17.0955C7.79114 17.0678 7.73189 17.0201 7.69 16.9586C7.64812 16.897 7.62549 16.8244 7.62501 16.75V11.4719L10.8669 14.3125L8.26907 17.0088ZM16.5734 17.5844C16.5589 17.648 16.5281 17.7068 16.4839 17.7549C16.4397 17.8029 16.3837 17.8386 16.3215 17.8584C16.2593 17.8782 16.193 17.8814 16.1291 17.8677C16.0653 17.854 16.0061 17.8239 15.9575 17.7803L7.85282 10.6731L20.1997 1.825L16.5734 17.5844Z" fill="#2C2C2C"/>
</svg>
