<svg width="50" height="44" viewBox="0 0 50 44" fill="none" xmlns="http://www.w3.org/2000/svg">
<rect x="0.75" y="0.25" width="48.5" height="43.5" stroke="#282829" stroke-opacity="0.8" stroke-width="0.5"/>
<path fill-rule="evenodd" clip-rule="evenodd" d="M39.8205 15.9374H39.4205L39.3661 15.5411L39.8205 15.4787V15.9374ZM36.5605 26.4996C36.5973 26.4318 36.6376 26.358 36.681 26.2783C36.7388 26.1723 36.8021 26.056 36.8706 25.9299C37.1429 25.4279 37.4822 24.7926 37.8245 24.0974C38.5029 22.7197 39.2162 21.0621 39.4229 19.7255C39.6208 18.4456 39.7202 17.5042 39.7701 16.8799C39.7951 16.5677 39.8077 16.3349 39.814 16.1787C39.8172 16.1006 39.8188 16.0416 39.8196 16.0015L39.8204 15.9555L39.8205 15.943L39.8205 15.9393L39.8205 15.9374C39.8205 15.9373 39.8205 15.9374 39.4205 15.9374C39.3661 15.5411 39.3661 15.5411 39.3661 15.5411L39.0176 15.5887C38.8015 15.6181 38.502 15.6586 38.1682 15.7033C37.4999 15.7927 36.6968 15.8982 36.1508 15.9638C34.6035 16.1496 33.6673 16.3549 32.2397 17.1083C31.5869 17.4528 30.852 18.0275 30.2942 18.5003C30.012 18.7395 29.769 18.9579 29.5964 19.1167C29.5101 19.1961 29.4412 19.2608 29.3937 19.3058L29.3388 19.358L29.3243 19.3719L29.3204 19.3757L29.3193 19.3767C29.3193 19.3767 29.3189 19.3772 29.5973 19.6644L29.3193 19.3767L29.2017 19.4908L29.1974 19.6539L29.1974 19.655L29.1973 19.659L29.1968 19.6756L29.1947 19.7411C29.1928 19.7985 29.1898 19.8825 29.1853 19.9883C29.1763 20.1999 29.1617 20.4981 29.1389 20.8435C29.0933 21.537 29.0158 22.4103 28.8887 23.1545C28.7081 24.2118 28.1234 25.5637 27.5639 26.6779C27.2871 27.229 27.0219 27.7115 26.8259 28.0562C26.728 28.2284 26.6475 28.3659 26.5917 28.46C26.5638 28.5071 26.5421 28.5433 26.5275 28.5675L26.511 28.5948L26.5069 28.6014L26.506 28.6029L26.5003 28.6122L24.3867 32.504L24.8256 32.6616L24.8313 32.6636L24.8472 32.6693L24.9082 32.691C24.9612 32.7098 25.0384 32.7369 25.1353 32.7706C25.3291 32.838 25.6021 32.9316 25.9192 33.0366C26.5519 33.2462 27.3673 33.5035 28.0825 33.6888C29.5965 34.081 30.804 34.385 32.3647 34.6285C34.2986 34.9303 35.4959 35.0475 37.4615 34.6244C38.7869 34.339 39.7673 33.9962 40.6725 33.5072C41.5731 33.0206 42.3832 32.3977 43.3699 31.5761C43.7824 31.2327 44.266 30.7542 44.6404 30.3688C44.829 30.1747 44.9926 30.0015 45.109 29.8767C45.1672 29.8143 45.2137 29.764 45.2458 29.7291L45.2828 29.6888L45.2958 29.6746L45.8693 29.0436L45.018 29.0056L45.0142 29.0055L45.0004 29.0048C44.9879 29.0041 44.969 29.003 44.9442 29.0015C44.8946 28.9984 44.8217 28.9935 44.7303 28.9859C44.5471 28.9708 44.2908 28.9454 43.9995 28.9045C43.4083 28.8216 42.7058 28.6793 42.1746 28.4461C41.4705 28.1369 41.1091 27.9224 40.7874 27.7314C40.6251 27.635 40.4728 27.5446 40.2917 27.4511C39.7655 27.1793 39.1478 26.9804 37.6819 26.7242C37.4067 26.6761 37.0003 26.5928 36.6585 26.5204C36.6251 26.5134 36.5924 26.5064 36.5605 26.4996ZM35.6309 26.5467C35.7056 26.396 35.8348 26.1591 35.9932 25.8684C36.0481 25.7678 36.1065 25.6607 36.1674 25.5485C36.4378 25.0499 36.7713 24.4252 37.1068 23.744C37.784 22.3688 38.446 20.8077 38.6323 19.6032C38.8273 18.342 38.9243 17.42 38.9726 16.8161C38.9856 16.654 38.9951 16.5148 39.0019 16.3982C38.8008 16.4254 38.5492 16.4594 38.2743 16.4962C37.6061 16.5856 36.7982 16.6918 36.2462 16.7581C34.7599 16.9365 33.9269 17.1225 32.6131 17.8158C32.0419 18.1173 31.3623 18.6437 30.8115 19.1106C30.5394 19.3412 30.3046 19.5522 30.138 19.7055C30.0807 19.7582 30.0315 19.8041 29.9917 19.8414C29.9899 19.8917 29.9875 19.9523 29.9846 20.0221C29.9754 20.2386 29.9604 20.5432 29.9372 20.896C29.891 21.599 29.8113 22.5044 29.6773 23.2892C29.4751 24.4727 28.8417 25.916 28.2788 27.0369C27.9944 27.6032 27.7223 28.0982 27.5214 28.4516C27.4208 28.6285 27.3379 28.7702 27.2799 28.868C27.2509 28.9169 27.2281 28.9549 27.2125 28.9808L27.1945 29.0105L27.1935 29.012L25.7587 31.6541C25.8303 31.6344 25.9053 31.6137 25.9833 31.5922C26.6596 31.4054 27.5608 31.152 28.4622 30.8852C30.0893 30.4035 31.7259 29.6877 33.1465 28.7343C33.6613 28.3888 34.2898 27.8362 34.8001 27.3576C35.0528 27.1206 35.2721 26.906 35.4282 26.7506C35.5063 26.673 35.5683 26.6103 35.6108 26.5672L35.6309 26.5467ZM36.0929 27.2173C36.0631 27.2473 36.0295 27.2809 35.9925 27.3177C35.8322 27.4772 35.6071 27.6976 35.3473 27.9411C34.8328 28.4237 34.1646 29.0145 33.5923 29.3986C32.0927 30.4049 30.3793 31.152 28.6892 31.6523C27.8375 31.9044 26.987 32.1443 26.3245 32.3279C26.9246 32.5246 27.6488 32.7501 28.2831 32.9144C29.7946 33.3059 30.9693 33.6011 32.4881 33.8381C34.3812 34.1335 35.4666 34.2355 37.2931 33.8423C38.5653 33.5684 39.4701 33.2475 40.2923 32.8033C41.1192 32.3566 41.8787 31.7768 42.858 30.9613C43.2363 30.6463 43.6957 30.1931 44.0667 29.8113C44.0933 29.7839 44.1195 29.7568 44.1451 29.7303C44.0633 29.7204 43.9774 29.7093 43.8884 29.6968C43.2777 29.6112 42.4871 29.457 41.853 29.1786C41.11 28.8523 40.6601 28.5869 40.3189 28.3856C40.1722 28.2991 40.0457 28.2244 39.9246 28.1619C39.5077 27.9466 38.9859 27.7643 37.5441 27.5123C37.2534 27.4615 36.8346 27.3754 36.4928 27.3031C36.3393 27.2706 36.2 27.2406 36.0929 27.2173Z" fill="#282829"/>
<path fill-rule="evenodd" clip-rule="evenodd" d="M25.6322 9.68904C25.8307 9.93449 26.0722 10.238 26.227 10.4501C27.5233 12.2271 28.2393 13.3313 29.0293 15.4594C29.3298 16.269 29.5705 17.3111 29.7349 18.1373C29.8176 18.5532 29.882 18.9196 29.9258 19.1823C29.9477 19.3137 29.9645 19.4192 29.9758 19.4922L29.9887 19.5764L29.992 19.5987L29.9931 19.6061C29.9931 19.6062 29.9932 19.6068 29.5973 19.6644L29.2015 19.722L29.2006 19.7156L29.1975 19.6952L29.1852 19.6148C29.1743 19.5445 29.1581 19.4419 29.1367 19.3138C29.094 19.0574 29.031 18.6994 28.9502 18.2934C28.7876 17.4759 28.5567 16.4852 28.2793 15.7378C27.5247 13.705 26.8544 12.6675 25.5807 10.9216C25.4391 10.7275 25.2091 10.4381 25.0102 10.1921C24.9116 10.0703 24.8222 9.96093 24.7574 9.88205L24.6807 9.78899L24.6533 9.75584L24.9608 9.49998C25.2687 9.24461 25.2687 9.24462 25.2687 9.24463L25.2976 9.27956L25.3755 9.37425C25.4413 9.45425 25.532 9.56522 25.6322 9.68904Z" fill="#282829"/>
<path fill-rule="evenodd" clip-rule="evenodd" d="M10.1798 15.9374H10.5798L10.6342 15.5411L10.1798 15.4787V15.9374ZM13.4397 26.4996C13.4029 26.4318 13.3627 26.358 13.3192 26.2783C13.2615 26.1723 13.1981 26.056 13.1297 25.9299C12.8574 25.4279 12.518 24.7926 12.1757 24.0974C11.4973 22.7197 10.7841 21.0621 10.5774 19.7255C10.3795 18.4456 10.2801 17.5042 10.2301 16.8799C10.2052 16.5677 10.1926 16.3349 10.1862 16.1787C10.1831 16.1006 10.1814 16.0416 10.1806 16.0015L10.1799 15.9555L10.1798 15.943L10.1798 15.9393L10.1798 15.9374C10.1798 15.9373 10.1798 15.9374 10.5798 15.9374C10.6342 15.5411 10.6342 15.5411 10.6342 15.5411L10.9827 15.5887C11.1987 15.6181 11.4983 15.6586 11.832 15.7033C12.5003 15.7927 13.3034 15.8982 13.8494 15.9638C15.3968 16.1496 16.333 16.3549 17.7606 17.1083C18.4133 17.4528 19.1483 18.0275 19.706 18.5003C19.9882 18.7395 20.2312 18.9579 20.4038 19.1167C20.4902 19.1961 20.5591 19.2608 20.6066 19.3058L20.6614 19.358L20.6759 19.3719L20.6798 19.3757L20.6809 19.3767C20.6809 19.3767 20.6814 19.3772 20.4029 19.6644L20.6809 19.3767L20.7985 19.4908L20.8028 19.6539L20.8028 19.655L20.8029 19.659L20.8034 19.6756L20.8055 19.7411C20.8074 19.7985 20.8105 19.8825 20.815 19.9883C20.8239 20.1999 20.8386 20.4981 20.8613 20.8435C20.9069 21.537 20.9844 22.4103 21.1116 23.1545C21.2922 24.2118 21.8769 25.5637 22.4363 26.6779C22.7131 27.229 22.9783 27.7115 23.1743 28.0562C23.2722 28.2284 23.3527 28.3659 23.4085 28.46C23.4364 28.5071 23.4581 28.5433 23.4728 28.5675L23.4893 28.5948L23.4933 28.6014L23.4943 28.6029L23.4999 28.6122L25.6135 32.504L25.1747 32.6616L25.169 32.6636L25.1531 32.6693L25.0921 32.691C25.039 32.7098 24.9618 32.7369 24.8649 32.7706C24.6711 32.838 24.3982 32.9316 24.081 33.0366C23.4483 33.2462 22.633 33.5035 21.9178 33.6888C20.4038 34.081 19.1963 34.385 17.6355 34.6285C15.7017 34.9303 14.5043 35.0475 12.5388 34.6244C11.2134 34.339 10.2329 33.9962 9.32771 33.5072C8.42715 33.0206 7.61708 32.3977 6.6303 31.5761C6.21787 31.2327 5.7342 30.7542 5.35981 30.3688C5.17121 30.1747 5.00769 30.0015 4.89127 29.8767C4.83303 29.8143 4.7865 29.764 4.75442 29.7291L4.71746 29.6888L4.70449 29.6746L4.13097 29.0436L4.98226 29.0056L4.98602 29.0055L4.99982 29.0048C5.0123 29.0041 5.03124 29.003 5.05603 29.0015C5.10561 28.9984 5.17854 28.9935 5.26999 28.9859C5.45313 28.9708 5.70943 28.9454 6.00079 28.9045C6.59193 28.8216 7.29445 28.6793 7.82562 28.4461C8.52979 28.1369 8.8911 27.9224 9.21284 27.7314C9.37518 27.635 9.52744 27.5446 9.70858 27.4511C10.2348 27.1793 10.8524 26.9804 12.3184 26.7242C12.5936 26.6761 12.9999 26.5928 13.3418 26.5204C13.3752 26.5134 13.4079 26.5064 13.4397 26.4996ZM14.3693 26.5467C14.2947 26.396 14.1655 26.1591 14.007 25.8684C13.9521 25.7678 13.8937 25.6607 13.8329 25.5485C13.5625 25.0499 13.2289 24.4252 12.8934 23.744C12.2162 22.3688 11.5542 20.8077 11.368 19.6032C11.173 18.342 11.0759 17.42 11.0276 16.8161C11.0146 16.654 11.0052 16.5148 10.9983 16.3982C11.1994 16.4254 11.4511 16.4594 11.726 16.4962C12.3942 16.5856 13.2021 16.6918 13.7541 16.7581C15.2403 16.9365 16.0734 17.1225 17.3872 17.8158C17.9584 18.1173 18.638 18.6437 19.1888 19.1106C19.4608 19.3412 19.6956 19.5522 19.8622 19.7055C19.9196 19.7582 19.9688 19.8041 20.0085 19.8414C20.0104 19.8917 20.0127 19.9523 20.0157 20.0221C20.0248 20.2386 20.0398 20.5432 20.063 20.896C20.1093 21.599 20.1889 22.5044 20.323 23.2892C20.5252 24.4727 21.1585 25.916 21.7214 27.0369C22.0058 27.6032 22.2779 28.0982 22.4789 28.4516C22.5794 28.6285 22.6624 28.7702 22.7204 28.868C22.7494 28.9169 22.7721 28.9549 22.7878 28.9808L22.8058 29.0105L22.8067 29.012L24.2416 31.6541C24.1699 31.6344 24.0949 31.6137 24.0169 31.5922C23.3407 31.4054 22.4395 31.152 21.5381 30.8852C19.911 30.4035 18.2744 29.6877 16.8537 28.7343C16.3389 28.3888 15.7105 27.8362 15.2002 27.3576C14.9475 27.1206 14.7281 26.906 14.572 26.7506C14.494 26.673 14.4319 26.6103 14.3895 26.5672L14.3693 26.5467ZM13.9073 27.2173C13.9371 27.2473 13.9707 27.2809 14.0077 27.3177C14.168 27.4772 14.3932 27.6976 14.6529 27.9411C15.1675 28.4237 15.8357 29.0145 16.4079 29.3986C17.9075 30.4049 19.621 31.152 21.311 31.6523C22.1628 31.9044 23.0132 32.1443 23.6758 32.3279C23.0756 32.5246 22.3515 32.7501 21.7172 32.9144C20.2057 33.3059 19.031 33.6011 17.5122 33.8381C15.6191 34.1335 14.5336 34.2355 12.7072 33.8423C11.435 33.5684 10.5302 33.2475 9.70795 32.8033C8.88109 32.3566 8.12159 31.7768 7.14219 30.9613C6.76391 30.6463 6.30455 30.1931 5.93359 29.8113C5.9069 29.7839 5.88072 29.7568 5.85512 29.7303C5.93696 29.7204 6.02287 29.7093 6.11189 29.6968C6.72256 29.6112 7.51316 29.457 8.14727 29.1786C8.89025 28.8523 9.34018 28.5869 9.68137 28.3856C9.82802 28.2991 9.95459 28.2244 10.0757 28.1619C10.4925 27.9466 11.0144 27.7643 12.4561 27.5123C12.7468 27.4615 13.1656 27.3754 13.5074 27.3031C13.6609 27.2706 13.8002 27.2406 13.9073 27.2173Z" fill="#282829"/>
<path fill-rule="evenodd" clip-rule="evenodd" d="M24.3681 9.68904C24.1695 9.93449 23.928 10.238 23.7733 10.4501C22.4769 12.2271 21.7609 13.3313 20.9709 15.4594C20.6704 16.269 20.4298 17.3111 20.2654 18.1373C20.1826 18.5532 20.1182 18.9196 20.0744 19.1823C20.0525 19.3137 20.0358 19.4192 20.0245 19.4922L20.0116 19.5764L20.0083 19.5987L20.0072 19.6061C20.0072 19.6062 20.0071 19.6068 20.4029 19.6644L20.7987 19.722L20.7997 19.7156L20.8027 19.6952L20.815 19.6148C20.8259 19.5445 20.8422 19.4419 20.8635 19.3138C20.9063 19.0574 20.9692 18.6994 21.05 18.2934C21.2127 17.4759 21.4435 16.4852 21.7209 15.7378C22.4755 13.705 23.1458 12.6675 24.4196 10.9216C24.5612 10.7275 24.7912 10.4381 24.9901 10.1921C25.0886 10.0703 25.1781 9.96093 25.2429 9.88205L25.3195 9.78899L25.3469 9.75584L25.0395 9.49998C24.7316 9.24461 24.7316 9.24462 24.7316 9.24463L24.7027 9.27956L24.6247 9.37425C24.559 9.45425 24.4682 9.56522 24.3681 9.68904Z" fill="#282829"/>
<path fill-rule="evenodd" clip-rule="evenodd" d="M15.5 23C16.6046 23 17.5 22.1046 17.5 21C17.5 19.8954 16.6046 19 15.5 19C14.3954 19 13.5 19.8954 13.5 21C13.5 22.1046 14.3954 23 15.5 23ZM15.5 23.5C16.8807 23.5 18 22.3807 18 21C18 19.6193 16.8807 18.5 15.5 18.5C14.1193 18.5 13 19.6193 13 21C13 22.3807 14.1193 23.5 15.5 23.5Z" fill="#282829"/>
<path fill-rule="evenodd" clip-rule="evenodd" d="M34.5 23C35.6046 23 36.5 22.1046 36.5 21C36.5 19.8954 35.6046 19 34.5 19C33.3954 19 32.5 19.8954 32.5 21C32.5 22.1046 33.3954 23 34.5 23ZM34.5 23.5C35.8807 23.5 37 22.3807 37 21C37 19.6193 35.8807 18.5 34.5 18.5C33.1193 18.5 32 19.6193 32 21C32 22.3807 33.1193 23.5 34.5 23.5Z" fill="#282829"/>
</svg>
