<svg width="41" height="33" viewBox="0 0 41 33" fill="none" xmlns="http://www.w3.org/2000/svg">
<path d="M4.47475 8.29979C2.67244 10.1021 -1.19229 14.3898 1.3294 14.0186C2.31754 13.8732 2.83703 13.4988 3.61696 12.8749C5.04665 11.7311 7.98641 8.97911 11.3374 7.44196C14.5869 5.95136 16.0775 5.55839 19.6297 5.15444C23.8517 4.67431 26.2064 4.58255 29.9236 5.15444C31.5791 5.40913 32.2111 6.58414 33.9268 7.15603C34.9861 7.50915 36.3275 7.13039 37.0721 6.2982C38.0711 5.1817 38.2764 4.6104 37.9299 3.15284C37.5787 1.67518 35.6954 1.19475 34.2127 0.865291C31.6392 0.293449 29.2138 0.0906088 25.6345 0.00746967C23.5134 -0.041798 22.8911 0.162787 20.7735 0.293421C18.8657 0.411111 14.1968 2.29502 14.1968 2.29502C12.3858 3.05753 6.7623 6.01226 4.47475 8.29979Z" fill="white" fill-opacity="0.5"/>
<path d="M6.19031 26.6C6.19031 26.6 9.01885 24.105 13.0529 21.739C16.1126 19.9445 19.2248 17.9802 22.489 16.5921C25.4136 15.3483 31.9251 13.1608 31.9251 13.1608C31.9251 13.1608 31.7836 15.4577 32.4969 16.5921C33.2697 17.821 34.4931 17.803 35.9282 18.0218C37.8339 18.3123 38.7877 18.0218 38.7877 18.0218C40.5033 16.5921 41.3203 18.3077 39.3595 20.0234C38.3792 20.8812 35.0704 20.3093 33.3548 20.3093C33.3548 20.3093 33.761 22.6875 33.3548 24.3125C33.0688 25.4563 32.4969 26.6 31.6391 27.4579C31.0074 28.0895 30.1735 28.4585 29.6375 27.7438C28.7797 26.6 28.7951 25.9 28.4938 24.8844C28.1924 23.8688 27.9219 20.8812 27.9219 20.8812C27.9219 20.8812 24.2736 22.519 21.9171 23.7406C19.6893 24.8956 12.3666 26.9432 17.628 28.3157C19.1132 28.7031 21.6698 29.2055 21.7733 29.2098C21.6812 29.1865 21.6312 29.1735 21.6312 29.1735C21.7464 29.1991 21.7894 29.2104 21.7733 29.2098C22.505 29.3945 25.8901 30.2256 27.9219 30.3173C28.9259 30.3626 29.5871 30.4616 30.4954 30.0313C31.2089 29.6933 31.1355 28.8876 31.9251 28.8876C32.4969 28.8876 33.0688 29.7454 33.0688 29.7454C33.4812 30.6619 33.3548 31.1751 32.7829 31.747C31.9598 32.5701 24.7765 32.3189 21.0593 31.747C17.3905 31.1825 13.0529 30.6032 9.62161 28.8876C8.18114 28.1673 6.19031 26.6 6.19031 26.6Z" fill="white" fill-opacity="0.5"/>
</svg>
