<svg width="36" height="39" viewBox="0 0 36 39" fill="none" xmlns="http://www.w3.org/2000/svg">
<path d="M2.70785 11.5201C2.06272 11.0644 1.54649 11.1253 0.987484 11.5201C0.148973 12.1125 0.557376 13.7987 0.987484 14.2544C1.41759 14.7101 4.64326 19.0393 5.93352 20.1786C7.22378 21.3179 10.2009 23.612 13.2451 23.5964C14.9763 23.5876 17.761 22.9129 17.761 22.9129C17.761 22.9129 18.8393 22.7035 19.4814 22.9129C20.1719 23.138 20.3416 24.9636 20.3416 24.9636C20.3416 24.9636 20.6678 27.2743 20.9867 29.2928C21.3827 31.7992 21.9582 33.076 23.1372 35.217C23.9836 36.7541 23.9973 37.0398 25.7177 38.6348C26.0969 38.9864 26.5705 39.1275 27.008 38.8627C27.4971 38.5665 27.5297 38.5336 27.6531 37.9512C27.9429 36.5841 25.9729 35.3824 25.2876 33.622C24.6716 32.0397 24.3095 31.0013 24.2124 29.2928C24.0552 26.5264 24.2124 25.6842 24.2124 22.9129C24.2124 21.09 24.2979 19.3145 25.0726 17.2165C25.8872 15.01 27.3729 13.6771 28.2983 11.5201C29.3735 9.01376 28.9434 9.24162 29.8036 7.87449C29.9899 7.57834 31.3089 7.41878 31.3089 7.41878C31.3089 7.41878 32.3235 7.22351 33.2443 6.50736C34.1651 5.79122 35.3947 4.22882 35.3947 1.95028C35.3947 0.811007 35.364 0.583153 34.5346 0.127432C34.0127 -0.15929 33.2443 0.127432 33.2443 0.127432C32.1691 1.49457 33.4369 2.9683 31.5239 3.77312C30.5873 4.16717 28.6725 3.2374 28.2983 4.22881C27.008 7.64663 26.9801 8.25105 25.7177 10.6087C24.2093 13.4259 23.0953 15.3398 20.7717 17.4444C18.2592 19.7199 15.6106 21.09 13.4601 21.09C11.3097 21.09 9.34467 19.5791 7.2238 17.6722C5.0335 15.7029 3.35297 11.9759 2.70785 11.5201Z" fill="white" fill-opacity="0.5"/>
</svg>
