<svg width="22" height="34" viewBox="0 0 22 34" fill="none" xmlns="http://www.w3.org/2000/svg">
<path d="M0.730377 32.7571C-0.34828 31.3209 -0.13269 29.7461 0.730377 28.1734C1.47478 26.8169 2.41651 26.222 3.91176 25.786C3.91176 25.786 5.99751 25.2058 7.09315 25.786C8.11592 26.3277 7.72993 27.8049 8.82845 28.1734C10.3622 28.6879 10.5802 27.4978 11.7206 26.3589C12.9414 25.1399 13.706 23.5575 14.7092 22.1572C16.8301 19.1969 18.9341 17.4395 19.3367 14.8041C19.7084 12.3705 18.7652 10.1987 17.6014 8.02403C16.5433 6.04707 13.9357 3.49714 11.7206 3.05832C9.31047 2.58085 8.25001 4.96819 8.25001 7.26008C8.25001 8.67721 10.5115 11.7335 10.0817 13.0852C9.70529 14.2692 7.48279 12.4784 7.09315 13.6582C6.61321 15.1114 5.70516 15.6151 5.06863 17.0005C4.47684 18.2885 7.09315 20.4383 3.91176 20.4383C2.75489 20.4383 1.40806 23.3879 0.730377 22.1572C0.405862 21.5679 1.2124 20.3428 1.79084 19.1969C2.36927 18.0509 2.94771 16.3321 3.91176 13.6582C4.87582 10.9843 4.55447 6.84627 5.45425 5.0637C6.35404 3.28113 7.58268 0.156348 11.7206 0.0024961C14.2458 -0.0913921 16.8301 2.48537 18.0834 4.01326C19.3367 5.54115 22.4726 10.2416 21.9396 14.2311C21.5419 17.2084 18.0834 22.1572 18.0834 22.1572C18.0834 22.1572 15.8661 27.0274 14.7092 28.1734C13.5523 29.3193 9.67075 34.0959 5.35785 33.9985C3.48609 33.9563 1.84789 34.2451 0.730377 32.7571Z" fill="white" fill-opacity="0.5"/>
</svg>
