<svg width="39" height="32" viewBox="0 0 39 32" fill="none" xmlns="http://www.w3.org/2000/svg">
<path fill-rule="evenodd" clip-rule="evenodd" d="M0 18.6619C0 18.6619 13.6369 8.0043 23.2742 2.62153C23.5893 2.44554 23.9314 2.23993 24.2915 2.02348C25.741 1.15231 27.4829 0.105347 28.9355 0.105347C29.8358 0.105347 30.2482 0.585721 30.657 1.06192C31.0716 1.54491 31.4825 2.02361 32.3952 1.99244C33.1954 1.96512 33.5759 1.58323 33.9238 1.23397C34.3175 0.838909 34.6695 0.485591 35.5403 0.734379C37.7419 1.36335 39 6.08115 39 7.65373C39 11.76 33.9677 17.7183 33.9677 17.7183C33.9677 17.7183 35.3035 12.0694 33.0242 10.1699C31.1371 8.59728 29.879 8.28277 26.1048 8.91185C22.3306 9.54094 5.97581 17.3651 5.97581 18.6619C5.97581 19.6053 9.41949 21.178 11.9516 21.178C13.9593 21.178 15.7611 20.6075 17.6856 19.9982C19.3789 19.4622 21.1671 18.896 23.2742 18.6619C24.0326 18.5776 24.6556 18.4707 25.2338 18.3715C26.8137 18.1005 28.0596 17.8868 30.8226 18.3473C32.3738 18.6058 35.4488 19.7404 36.4839 21.178C38.2063 23.5702 37.6807 27.3556 35.8548 29.6699C34.3144 31.6225 31.7336 32.0022 29.25 31.8715C24.2047 31.6059 21.3364 30.5219 17.7811 29.1782C17.1253 28.9304 16.4462 28.6738 15.7258 28.4118C8.80645 25.8957 0 18.6619 0 18.6619ZM23.8182 28.2653C26.2228 28.539 28.2279 28.271 28.2967 27.6666C28.3655 27.0622 26.4719 26.3504 24.0673 26.0767C21.6627 25.8031 19.6577 26.0711 19.5889 26.6755C19.5201 27.2799 21.4136 27.9917 23.8182 28.2653Z" fill="white" fill-opacity="0.5"/>
</svg>
