<svg width="18" height="52" viewBox="0 0 18 52" fill="none" xmlns="http://www.w3.org/2000/svg">
<path fill-rule="evenodd" clip-rule="evenodd" d="M10.1861 1.97969C10.241 2.082 10.2938 2.18053 10.3402 2.27332C10.6406 2.87425 10.9101 3.34599 11.156 3.7764C11.5883 4.53311 11.9476 5.16205 12.2738 6.14057C12.8263 7.79795 13.0092 8.77056 12.8263 11.3889C12.5736 15.0064 11.591 17.5338 9.51148 20.5046C8.5446 21.8859 7.16332 23.6125 5.64393 25.5117C4.12474 27.4107 2.46747 29.4823 0.948303 31.5538C0.159214 32.6299 -0.207827 33.5751 0.119606 34.8686C0.329391 35.6974 1.69985 37.0785 2.88187 38.1835C3.96033 39.1916 5.02804 39.7392 6.24143 40.3615C6.74962 40.6221 7.28335 40.8959 7.85413 41.222C9.58117 42.2089 10.1658 42.6032 10.6164 43.9843C10.9845 45.1124 10.0639 47.0229 10.0639 47.0229C10.0639 47.0229 8.68283 48.9565 7.85413 49.509C7.66065 49.638 7.42198 49.767 7.17682 49.8995C6.37191 50.3345 5.4969 50.8074 5.92042 51.4426C6.47294 52.2713 8.38006 52.0082 8.95899 51.7188C10.6164 50.8901 11.7213 49.697 12.55 48.4041C13.177 47.4259 13.4067 46.7768 13.655 45.6417C13.7966 44.9943 13.5919 44.3007 13.3916 43.6223C13.1355 42.7548 12.8867 41.9121 13.3787 41.222C13.8232 40.5985 14.2965 40.6705 14.7916 40.7457C15.1393 40.7986 15.4978 40.8531 15.8648 40.6696C16.7543 40.2248 17.4702 39.1524 17.246 38.1835C16.9708 36.9944 16.1277 36.2432 15.0361 35.6974C13.9445 35.1515 12.6791 35.145 11.1688 35.145H7.02539C6.18286 35.145 5.52518 34.8677 5.36801 34.0399C5.18116 33.0558 5.91278 32.098 6.547 31.2677C6.61598 31.1774 6.68381 31.0886 6.74918 31.0014L11.7214 24.3718C13.5452 21.94 14.5385 19.9522 15.0361 18.2948C15.6996 16.0849 16.141 14.4275 16.141 11.3889C16.141 9.31388 15.8648 7.79795 15.5886 6.69303C15.3124 5.5881 14.3004 3.87953 13.3787 2.54955C12.9356 1.91018 12.55 1.44462 11.7213 0.615946C11.0348 -0.0705575 10.064 -0.21286 9.78771 0.339655C9.55574 0.803612 9.89881 1.44365 10.1861 1.97969ZM14.5251 37.8438C14.4486 37.5293 14.1557 37.2979 13.6964 37.0151C13.4202 36.8449 13.3078 36.8032 12.8677 36.7388C12.4276 36.6744 11.8562 36.6967 11.2103 36.7388C11.041 36.7499 10.8787 36.756 10.7226 36.7619C10.1767 36.7825 9.70628 36.8003 9.2767 37.0151C9.24178 37.0325 9.20738 37.0494 9.17362 37.066C8.79027 37.2546 8.48976 37.4023 8.44801 37.8438C8.40612 38.2866 8.4587 38.5919 8.72424 38.9487C8.95644 39.2607 9.16699 39.4529 9.55293 39.5011C9.96227 39.5523 10.1582 39.4597 10.4811 39.3072C10.5358 39.2814 10.5942 39.2538 10.6579 39.2249C10.81 39.1559 10.9412 39.0874 11.0647 39.0229C11.3706 38.8632 11.6289 38.7284 12.039 38.6724C12.07 38.6682 12.0999 38.664 12.1287 38.6599C12.3986 38.6219 12.5857 38.5955 12.8677 38.6724C13.025 38.7153 13.128 38.7639 13.2232 38.8088C13.355 38.8709 13.4717 38.9259 13.6964 38.9487C14.0358 38.9831 14.3309 38.9529 14.5251 38.6724C14.6833 38.444 14.6262 38.2287 14.5585 37.9733C14.5473 37.9313 14.5359 37.8882 14.5251 37.8438Z" fill="white" fill-opacity="0.5"/>
</svg>
