<svg width="28" height="38" viewBox="0 0 28 38" fill="none" xmlns="http://www.w3.org/2000/svg">
<path d="M23.9422 17.8922C24.4049 17.5663 24.7751 17.6098 25.176 17.8922C25.7774 18.3158 25.4845 19.5218 25.176 19.8477C24.8676 20.1736 22.5542 23.2698 21.6289 24.0846C20.7035 24.8994 18.5684 26.5401 16.3852 26.529C15.1436 26.5226 13.1465 26.0401 13.1465 26.0401C13.1465 26.0401 12.3732 25.8904 11.9127 26.0401C11.4175 26.2011 11.2958 27.5067 11.2958 27.5067C11.2958 27.5067 11.0618 29.1593 10.8331 30.6029C10.5491 32.3955 10.1364 33.3086 9.29085 34.8398C8.68381 35.9392 8.67396 36.1435 7.44016 37.2842C7.1682 37.5356 6.82857 37.6366 6.51481 37.4471C6.16401 37.2353 6.14067 37.2118 6.05213 36.7953C5.8443 35.8176 7.2571 34.9581 7.74861 33.6991C8.19037 32.5675 8.45011 31.8248 8.51972 30.6029C8.63244 28.6245 8.51972 28.0221 8.51972 26.0401C8.51972 24.7365 8.45837 23.4666 7.90283 21.9662C7.31857 20.3881 6.25307 19.4349 5.58945 17.8922C4.81833 16.0997 5.12679 16.2627 4.50988 15.2849C4.37625 15.0731 3.43031 14.959 3.43031 14.959C3.43031 14.959 2.70268 14.8193 2.04228 14.3072C1.38189 13.795 0.500032 12.6776 0.500032 11.048C0.500032 10.2332 0.522047 10.0703 1.11693 9.74434C1.49121 9.53928 2.04228 9.74434 2.04228 9.74434C2.81341 10.7221 1.90413 11.7761 3.27608 12.3517C3.94781 12.6335 5.32103 11.9685 5.58945 12.6776C6.51481 15.1219 6.53479 15.5542 7.44015 17.2404C8.52197 19.2552 9.32084 20.624 10.9873 22.1291C12.7892 23.7566 14.6887 24.7365 16.231 24.7365C17.7732 24.7365 19.1825 23.6558 20.7035 22.2921C22.2743 20.8837 23.4796 18.2181 23.9422 17.8922Z" fill="white" fill-opacity="0.5"/>
<path fill-rule="evenodd" clip-rule="evenodd" d="M18.7558 1.64313C18.6324 2.24252 19.0731 2.93007 19.0731 2.93007C19.0731 2.93007 20.0139 2.48203 20.6422 2.26015C21.372 2.00237 21.5999 1.93864 22.1114 1.7956C22.2609 1.75382 22.4345 1.70526 22.6519 1.64313C23.1503 1.50069 23.7754 1.40959 24.2914 1.36106C25.0402 1.29064 25.3139 1.36106 26.2835 1.64313C26.7089 1.76688 27.5 2.03097 27.5 2.03097C27.5 2.03097 26.9006 1.18476 26.4598 0.902695C26.2603 0.775 26.1088 0.666603 25.9783 0.573223C25.6034 0.30496 25.4017 0.160648 24.7322 0.0388561C23.8454 -0.122441 22.4505 0.255213 21.554 0.497903C21.4618 0.522851 21.375 0.546373 21.2944 0.567737C21.1446 0.607492 20.9741 0.647778 20.7939 0.690342C19.9353 0.893156 18.8578 1.1477 18.7558 1.64313ZM20.2367 5.36292L20.3248 5.06322L20.6422 4.81641L21.8233 3.88205C21.8233 3.88205 22.2272 3.67463 22.6425 3.55572C22.3505 3.73295 22.1583 4.03409 22.1583 4.37576C22.1583 4.921 22.6476 5.363 23.2513 5.363C23.855 5.363 24.3443 4.921 24.3443 4.37576C24.3443 4.05864 24.1788 3.77645 23.9215 3.59582C24.1365 3.65171 24.2914 3.70576 24.2914 3.70576C24.3375 3.72972 24.3959 3.76882 24.4736 3.82077C24.6436 3.93449 24.9056 4.10981 25.3316 4.32279C25.7547 4.53434 26.4011 4.39918 26.4598 4.32279C26.4598 4.32279 26.5629 4.23286 26.4598 4.16412C26.0367 3.88205 25.7723 3.70576 25.3316 3.47658C25.2127 3.41475 25.0946 3.34761 24.9762 3.28026C24.7522 3.15281 24.5268 3.02458 24.2914 2.93007C23.6206 2.66066 22.969 2.77002 22.2641 2.93007C21.9307 3.00574 21.5944 3.15146 21.3826 3.35317C21.0124 3.70576 20.8361 3.88205 20.8361 3.88205C20.7097 4.00432 20.5806 4.22835 20.4368 4.47768L20.4368 4.47769C20.3733 4.58785 20.3069 4.70296 20.2367 4.81641C20.2224 4.83954 20.2073 4.8627 20.1924 4.88579C20.0716 5.07217 19.9543 5.25311 20.2367 5.36292Z" fill="white" fill-opacity="0.5"/>
<path fill-rule="evenodd" clip-rule="evenodd" d="M16.0299 1.70893C16.1583 2.33233 15.6999 3.04741 15.6999 3.04741C15.6999 3.04741 14.7214 2.58143 14.0681 2.35067C13.3089 2.08256 13.0719 2.01628 12.5399 1.86751C12.3845 1.82405 12.2039 1.77356 11.9778 1.70893C11.4595 1.56079 10.8093 1.46604 10.2726 1.41556C9.49388 1.34233 9.20918 1.41556 8.20074 1.70893C7.7583 1.83764 6.9356 2.11231 6.9356 2.11231C6.9356 2.11231 7.559 1.23221 8.01739 0.938845C8.2249 0.806037 8.38246 0.693299 8.51819 0.59618C8.90812 0.317173 9.11789 0.167082 9.81425 0.0404122C10.7365 -0.127344 12.1873 0.265434 13.1197 0.517843C13.2155 0.54379 13.3059 0.568254 13.3896 0.590474C13.5455 0.631821 13.7229 0.67372 13.9103 0.717989C14.8032 0.928924 15.9239 1.19367 16.0299 1.70893ZM14.4898 5.57769L14.3981 5.26599L14.0681 5.00929L12.8396 4.03752C12.8396 4.03752 12.4195 3.82179 11.9876 3.69811C12.2914 3.88244 12.4912 4.19565 12.4912 4.55103C12.4912 5.1181 11.9823 5.57781 11.3545 5.57781C10.7266 5.57781 10.2177 5.1181 10.2177 4.55103C10.2177 4.22117 10.3899 3.92765 10.6575 3.73979C10.4339 3.79793 10.2726 3.85417 10.2726 3.85417C10.2247 3.87908 10.1639 3.91975 10.0832 3.97378C9.90639 4.09206 9.63385 4.2744 9.19085 4.4959C8.7508 4.71593 8.0785 4.57536 8.01739 4.4959C8.01739 4.4959 7.91014 4.40238 8.01739 4.33089C8.45743 4.03752 8.73246 3.85417 9.19085 3.61581C9.31451 3.5515 9.43726 3.48168 9.56041 3.41163C9.79343 3.27907 10.0279 3.14571 10.2726 3.04741C10.9703 2.76722 11.648 2.88096 12.3812 3.04741C12.7279 3.12612 13.0777 3.27767 13.298 3.48746C13.683 3.85417 13.8664 4.03752 13.8664 4.03752C13.9978 4.16468 14.1321 4.39768 14.2816 4.657L14.2816 4.657C14.3477 4.77158 14.4167 4.8913 14.4898 5.00929C14.5047 5.03334 14.5203 5.05743 14.5358 5.08143L14.5358 5.08145C14.6615 5.27529 14.7834 5.46349 14.4898 5.57769Z" fill="white" fill-opacity="0.5"/>
</svg>
