<svg width="29" height="28" viewBox="0 0 29 28" fill="none" xmlns="http://www.w3.org/2000/svg">
<path d="M3.54397 6.32285C2.65359 5.41612 2.2536 3.43084 1.47939 3.43084C0.908157 3.43084 0.39163 4.14894 0.124504 4.6519C-0.285089 5.4231 0.447094 7.02978 0.447094 7.02978C0.447094 7.02978 1.61154 9.13936 1.8665 10.7573C2.23378 13.0879 1.67294 16.4128 1.67294 18.2765C1.67294 21.0486 2.51125 21.824 5.22144 22.4539C7.15699 22.9037 8.01084 22.0609 10.5119 22.8394C13.6088 23.8034 17.4751 25.6958 22.3833 26.824C24.8995 27.4024 28.2544 27.5952 28.7706 26.824C29.2867 26.0528 28.7706 24.9317 28.7706 23.225C28.7706 21.6941 29.2222 18.8549 28.7706 18.2765C28.319 17.6981 25.4918 17.7623 24.7705 17.7623C23.0285 17.7623 21.6066 17.351 17.8025 16.4128C15.8804 15.9387 13.1467 15.8343 12.8991 15.1274C11.9313 12.3639 13.7378 8.57216 14.254 6.32285C14.4842 5.31971 15.1343 2.62605 14.5766 1.7599C14.154 1.10364 13.6818 0.667364 12.8991 0.667358C11.2862 0.667347 10.1893 4.6519 9.28609 5.93723C8.43938 7.1421 7.28602 7.92952 6.25373 7.92952C5.22144 7.92952 4.54465 7.34191 3.54397 6.32285Z" fill="white" fill-opacity="0.5"/>
<path d="M26.2793 7.39901C26.2793 7.39901 25.8758 8.95122 26.2793 9.84987C26.5479 10.4479 27.2908 10.6668 27.732 10.6668C28.1732 10.6668 28.6377 10.5851 28.7811 10.4217C28.9246 10.2583 29.2654 8.13427 28.6197 7.39901C28.16 6.8755 27.8089 6.50037 27.2478 6.50037C26.6866 6.50037 26.2793 7.39901 26.2793 7.39901Z" fill="white" fill-opacity="0.5"/>
<path d="M23.3793 7.39901C23.3793 7.39901 22.9758 8.95122 23.3793 9.84987C23.6478 10.4479 24.3907 10.6668 24.832 10.6668C25.2732 10.6668 25.7376 10.5851 25.8811 10.4217C26.0246 10.2583 26.3653 8.13427 25.7197 7.39901C25.26 6.8755 24.9089 6.50037 24.3477 6.50037C23.7866 6.50037 23.3793 7.39901 23.3793 7.39901Z" fill="white" fill-opacity="0.5"/>
<path d="M20.4794 7.39901C20.4794 7.39901 20.0759 8.95122 20.4794 9.84987C20.7479 10.4479 21.4908 10.6668 21.9321 10.6668C22.3733 10.6668 22.8377 10.5851 22.9812 10.4217C23.1247 10.2583 23.4654 8.13427 22.8198 7.39901C22.3601 6.8755 22.009 6.50037 21.4478 6.50037C20.8867 6.50037 20.4794 7.39901 20.4794 7.39901Z" fill="white" fill-opacity="0.5"/>
<path d="M17.5794 7.39901C17.5794 7.39901 17.1758 8.95122 17.5794 9.84987C17.8479 10.4479 18.5908 10.6668 19.032 10.6668C19.4733 10.6668 19.9377 10.5851 20.0812 10.4217C20.2247 10.2583 20.5654 8.13427 19.9198 7.39901C19.4601 6.8755 19.109 6.50037 18.5478 6.50037C17.9867 6.50037 17.5794 7.39901 17.5794 7.39901Z" fill="white" fill-opacity="0.5"/>
<path d="M14.6793 7.39901C14.6793 7.39901 14.2758 8.95122 14.6793 9.84987C14.9479 10.4479 15.6908 10.6668 16.132 10.6668C16.5732 10.6668 17.0377 10.5851 17.1812 10.4217C17.3246 10.2583 17.6654 8.13427 17.0198 7.39901C16.5601 6.8755 16.2089 6.50037 15.6478 6.50037C15.0866 6.50037 14.6793 7.39901 14.6793 7.39901Z" fill="white" fill-opacity="0.5"/>
</svg>
