<svg width="48" height="33" viewBox="0 0 48 33" fill="none" xmlns="http://www.w3.org/2000/svg">
<path fill-rule="evenodd" clip-rule="evenodd" d="M20.1558 9.11698C21.2511 5.43552 24.6061 0.5 24.6061 0.5C24.6061 0.5 27.5129 5.51667 28.5001 9.11698C29.0064 10.9636 29.3869 12.3997 29.5698 13.9155C30.5807 13.1379 31.6907 12.5077 33.0908 11.7595C36.2451 10.074 41.7845 9.3157 41.7845 9.3157C41.7845 9.3157 40.5422 15.1142 38.8872 18.4008C38.4186 19.3315 38.0047 20.1446 37.5835 20.8881C38.1965 20.9569 38.8448 21.0532 39.5575 21.1672C43.0244 21.7214 48 24.52 48 24.52C48 24.52 44.0396 28.5586 41.0065 30.2594C38.266 31.7961 36.5916 32.6859 33.5299 32.968C30.1914 33.2756 25.6826 31.2895 23.5164 30.209C21.146 31.4725 17.3395 33.1733 14.3735 32.9439C11.3087 32.7068 9.60405 31.8427 6.89695 30.2353C3.81039 28.4025 0 23.8898 0 23.8898C0 23.8898 4.96997 21.5935 8.34593 21.143C9.3896 21.0038 10.2926 20.8885 11.1477 20.8328C10.7421 20.1017 10.3479 19.2999 9.91149 18.3832C8.2789 14.9541 7.40069 8.8553 7.40069 8.8553C7.40069 8.8553 12.6815 10.0266 15.708 11.7419C17.0246 12.4881 18.0863 13.1013 19.0573 13.8239C19.2368 12.335 19.6207 10.9155 20.1558 9.11698ZM12.5219 13.2C12.5219 13.8376 12.0547 14.3545 11.4784 14.3545C10.9021 14.3545 10.4349 13.8376 10.4349 13.2C10.4349 12.5623 10.9021 12.0454 11.4784 12.0454C12.0547 12.0454 12.5219 12.5623 12.5219 13.2ZM23.9999 7.42725C24.5762 7.42725 25.0434 6.91034 25.0434 6.27271C25.0434 5.63507 24.5762 5.11817 23.9999 5.11817C23.4236 5.11817 22.9564 5.63507 22.9564 6.27271C22.9564 6.91034 23.4236 7.42725 23.9999 7.42725ZM37.5652 13.2C37.5652 13.8376 37.098 14.3545 36.5217 14.3545C35.9454 14.3545 35.4782 13.8376 35.4782 13.2C35.4782 12.5623 35.9454 12.0454 36.5217 12.0454C37.098 12.0454 37.5652 12.5623 37.5652 13.2ZM42.7828 25.8999C43.3591 25.8999 43.8262 25.383 43.8262 24.7454C43.8262 24.1077 43.3591 23.5908 42.7828 23.5908C42.2065 23.5908 41.7393 24.1077 41.7393 24.7454C41.7393 25.383 42.2065 25.8999 42.7828 25.8999ZM6.26081 24.7454C6.26081 25.383 5.79363 25.8999 5.21733 25.8999C4.64104 25.8999 4.17385 25.383 4.17385 24.7454C4.17385 24.1077 4.64104 23.5908 5.21733 23.5908C5.79363 23.5908 6.26081 24.1077 6.26081 24.7454ZM24.2372 14.3545C24.2372 14.3545 22.9244 16.2858 22.4958 17.7264C22.2864 18.43 22.1362 18.9855 22.066 19.568C21.6861 19.2853 21.2707 19.0454 20.7556 18.7535C19.5713 18.0823 17.5049 17.624 17.5049 17.624C17.5049 17.624 17.8486 20.0104 18.4874 21.3523C18.6582 21.711 18.8124 22.0247 18.9711 22.3108C18.6365 22.3326 18.2831 22.3777 17.8747 22.4322C16.5536 22.6085 14.6089 23.507 14.6089 23.507C14.6089 23.507 16.0999 25.2729 17.3077 25.99C18.367 26.619 19.034 26.9572 20.2333 27.0499C21.3939 27.1397 22.8833 26.4742 23.8109 25.9798C24.6585 26.4026 26.4228 27.1797 27.7292 27.0594C28.9273 26.949 29.5825 26.6008 30.6548 25.9995C31.8417 25.3339 33.3914 23.7536 33.3914 23.7536C33.3914 23.7536 31.4445 22.6585 30.0878 22.4417C29.8089 22.3971 29.5551 22.3593 29.3152 22.3324C29.48 22.0415 29.642 21.7233 29.8253 21.3592C30.4729 20.0731 30.959 17.8041 30.959 17.8041C30.959 17.8041 28.7915 18.1008 27.5572 18.7604C27.0094 19.0531 26.5751 19.2997 26.1796 19.6039C26.1079 19.0108 25.9591 18.4489 25.761 17.7264C25.3747 16.3175 24.2372 14.3545 24.2372 14.3545Z" fill="#8D7F7F"/>
</svg>
