<svg width="20" height="20" viewBox="0 0 20 20" fill="none" xmlns="http://www.w3.org/2000/svg">
<path fill-rule="evenodd" clip-rule="evenodd" d="M14.2243 0.941594C14.4814 -0.229835 16.1486 -0.236978 16.4157 0.931594L16.4271 0.98588L16.4514 1.09017C16.5951 1.7028 16.9157 2.25966 17.3734 2.69147C17.8312 3.12328 18.4057 3.41096 19.0257 3.51874C20.2486 3.73017 20.2486 5.48588 19.0257 5.69874C18.4025 5.80707 17.8253 6.09716 17.3665 6.53256C16.9077 6.96796 16.5879 7.52924 16.4471 8.14588L16.4157 8.28445C16.1486 9.45302 14.4814 9.44588 14.2243 8.27445L14.1986 8.15588C14.0631 7.53689 13.7463 6.97229 13.2885 6.53414C12.8308 6.09599 12.2529 5.80415 11.6286 5.69588C10.4086 5.48445 10.4086 3.73159 11.6286 3.52017C12.2509 3.41217 12.8271 3.1218 13.2841 2.68587C13.7411 2.24994 14.0584 1.68809 14.1957 1.07159L14.2143 0.98588L14.2243 0.941594ZM11.3843 7.11159C9.02713 6.70159 8.64856 3.79302 10.2514 2.58302C9.11515 2.14563 7.88948 1.99145 6.68029 2.1338C5.4711 2.27615 4.31474 2.71074 3.31111 3.40003C2.30747 4.08933 1.48674 5.0126 0.919808 6.09009C0.352876 7.16759 0.0567909 8.36691 0.0571292 9.58445C0.0571292 12.1387 1.41856 14.7059 2.93856 16.5945C3.63337 17.4702 4.431 18.2592 5.31427 18.9445C5.70142 19.2345 6.0857 19.4773 6.44713 19.6487C6.79999 19.8159 7.18427 19.9416 7.55713 19.9416C7.93141 19.9416 8.3157 19.8159 8.66856 19.6487C9.02999 19.4773 9.41427 19.2345 9.79999 18.9445C10.6841 18.2596 11.4822 17.4706 12.1771 16.5945C13.5014 14.9487 14.7043 12.7902 14.9914 10.573C14.4645 10.5161 13.9697 10.2921 13.5792 9.93382C13.1888 9.5755 12.9232 9.10166 12.8214 8.58159L12.7957 8.46302C12.7212 8.1231 12.5471 7.81305 12.2958 7.57238C12.0444 7.33171 11.7271 7.1713 11.3843 7.11159ZM7.55713 12.083C7.88543 12.083 8.21052 12.0184 8.51384 11.8927C8.81715 11.7671 9.09275 11.5829 9.3249 11.3508C9.55704 11.1186 9.74119 10.843 9.86683 10.5397C9.99247 10.2364 10.0571 9.91133 10.0571 9.58302C10.0571 9.25472 9.99247 8.92963 9.86683 8.62631C9.74119 8.323 9.55704 8.0474 9.3249 7.81526C9.09275 7.58311 8.81715 7.39896 8.51384 7.27332C8.21052 7.14769 7.88543 7.08302 7.55713 7.08302C6.89409 7.08302 6.2582 7.34641 5.78936 7.81526C5.32052 8.2841 5.05713 8.91998 5.05713 9.58302C5.05713 10.2461 5.32052 10.8819 5.78936 11.3508C6.2582 11.8196 6.89409 12.083 7.55713 12.083Z" fill="#EFEBF7"/>
</svg>
