<svg width="20" height="20" viewBox="0 0 20 20" fill="none" xmlns="http://www.w3.org/2000/svg">
<path d="M9.90002 5.70312C9.05018 5.70312 8.21943 5.95513 7.51281 6.42728C6.80619 6.89943 6.25545 7.57051 5.93023 8.35566C5.60501 9.14081 5.51992 10.0048 5.68571 10.8383C5.85151 11.6718 6.26075 12.4374 6.86167 13.0384C7.4626 13.6393 8.22823 14.0485 9.06175 14.2143C9.89526 14.3801 10.7592 14.295 11.5444 13.9698C12.3295 13.6446 13.0006 13.0938 13.4727 12.3872C13.9449 11.6806 14.1969 10.8498 14.1969 10C14.1956 8.8608 13.7425 7.76862 12.9369 6.96308C12.1314 6.15754 11.0392 5.70442 9.90002 5.70312ZM9.90002 13.5156C9.2047 13.5156 8.52499 13.3094 7.94685 12.9231C7.36871 12.5368 6.9181 11.9878 6.65201 11.3454C6.38592 10.703 6.3163 9.9961 6.45195 9.31414C6.5876 8.63217 6.92243 8.00575 7.4141 7.51408C7.90577 7.02241 8.5322 6.68758 9.21416 6.55193C9.89612 6.41628 10.603 6.4859 11.2454 6.75199C11.8878 7.01807 12.4369 7.46868 12.8232 8.04682C13.2095 8.62496 13.4156 9.30468 13.4156 10C13.4156 10.9324 13.0453 11.8266 12.3859 12.4859C11.7266 13.1452 10.8324 13.5156 9.90002 13.5156ZM14.5875 0.234375H5.21252C3.8662 0.235926 2.57546 0.771439 1.62346 1.72344C0.671463 2.67543 0.13595 3.96617 0.134399 5.3125V14.6875C0.13595 16.0338 0.671463 17.3246 1.62346 18.2766C2.57546 19.2286 3.8662 19.7641 5.21252 19.7656H14.5875C15.9339 19.7641 17.2246 19.2286 18.1766 18.2766C19.1286 17.3246 19.6641 16.0338 19.6656 14.6875V5.3125C19.6641 3.96617 19.1286 2.67543 18.1766 1.72344C17.2246 0.771439 15.9339 0.235926 14.5875 0.234375ZM18.8844 14.6875C18.8831 15.8267 18.43 16.9189 17.6244 17.7244C16.8189 18.53 15.7267 18.9831 14.5875 18.9844H5.21252C4.07332 18.9831 2.98114 18.53 2.1756 17.7244C1.37006 16.9189 0.916942 15.8267 0.915649 14.6875V5.3125C0.916942 4.17329 1.37006 3.08112 2.1756 2.27558C2.98114 1.47004 4.07332 1.01692 5.21252 1.01562H14.5875C15.7267 1.01692 16.8189 1.47004 17.6244 2.27558C18.43 3.08112 18.8831 4.17329 18.8844 5.3125V14.6875ZM15.7594 4.92188C15.7594 5.07639 15.7136 5.22744 15.6277 5.35591C15.5419 5.48439 15.4199 5.58453 15.2771 5.64366C15.1344 5.70279 14.9773 5.71826 14.8257 5.68811C14.6742 5.65797 14.535 5.58356 14.4257 5.4743C14.3165 5.36504 14.2421 5.22584 14.2119 5.07429C14.1818 4.92274 14.1972 4.76566 14.2564 4.6229C14.3155 4.48015 14.4156 4.35813 14.5441 4.27229C14.6726 4.18644 14.8236 4.14062 14.9781 4.14062C15.1853 4.14062 15.3841 4.22294 15.5306 4.36945C15.6771 4.51596 15.7594 4.71467 15.7594 4.92188Z" fill="#2C2C2C"/>
</svg>
