<svg width="25" height="16" viewBox="0 0 25 16" fill="none" xmlns="http://www.w3.org/2000/svg">
<path fill-rule="evenodd" clip-rule="evenodd" d="M2.43232 0.860429C2.06246 0.888784 1.70451 1.02774 1.42391 1.26826C1.10514 1.54149 0.907593 1.93011 0.907593 2.355V13.66C0.907593 14.0849 1.10514 14.4735 1.42391 14.7467C1.74029 15.0179 2.155 15.16 2.57426 15.16H23.0259C23.4452 15.16 23.8599 15.0179 24.1763 14.7467C24.495 14.4735 24.6926 14.0849 24.6926 13.66V2.34C24.6926 1.91511 24.495 1.52649 24.1763 1.25326C23.8599 0.982071 23.4452 0.839996 23.0259 0.839996H2.57426C2.52495 0.839996 2.47732 0.847133 2.43232 0.860429ZM2.6963 1.84C2.65724 1.84979 2.61636 1.855 2.57426 1.855C2.37468 1.855 2.1959 1.92363 2.0747 2.02752C1.95588 2.12936 1.90759 2.24945 1.90759 2.355V13.66C1.90759 13.7655 1.95588 13.8856 2.0747 13.9875C2.19589 14.0914 2.37468 14.16 2.57426 14.16H23.0259C23.2255 14.16 23.4043 14.0914 23.5255 13.9875C23.6443 13.8856 23.6926 13.7655 23.6926 13.66V2.34C23.6926 2.23445 23.6443 2.11436 23.5255 2.01252C23.4043 1.90863 23.2255 1.84 23.0259 1.84H2.6963ZM3.23054 2.99823C3.37787 2.76467 3.68664 2.69478 3.9202 2.84211L12.8001 8.44382L21.68 2.84211C21.9135 2.69478 22.2223 2.76467 22.3696 2.99823C22.517 3.23178 22.4471 3.54055 22.2135 3.68788L13.0669 9.45788C12.9039 9.5607 12.6963 9.5607 12.5333 9.45788L3.38666 3.68788C3.1531 3.54055 3.08321 3.23178 3.23054 2.99823Z" fill="#2C2C2C"/>
</svg>
