<svg width="26" height="16" viewBox="0 0 26 16" fill="none" xmlns="http://www.w3.org/2000/svg">
<path fill-rule="evenodd" clip-rule="evenodd" d="M0.607815 0.618879C0.701874 0.489238 0.852348 0.412506 1.01252 0.412506H5.30627C5.49886 0.412506 5.67433 0.523124 5.75739 0.696891C6.01648 1.23898 6.26915 1.78918 6.51964 2.33465C7.10386 3.60684 7.67628 4.85332 8.29095 5.91134C8.72678 6.66154 9.16568 7.28302 9.61807 7.72787C9.87539 7.98091 10.1269 8.16692 10.375 8.28938V2.85185L9.0612 1.22687C8.94007 1.07704 8.91579 0.870945 8.99881 0.697077C9.08182 0.523209 9.25735 0.412506 9.45002 0.412506H15.4188C15.6949 0.412506 15.9188 0.636364 15.9188 0.912506V7.05811C16.7472 6.29609 17.3716 5.41146 17.934 4.46297C18.2291 3.96527 18.5028 3.45779 18.782 2.94006C18.8493 2.81521 18.9169 2.68977 18.9853 2.56372C19.3342 1.92031 19.6982 1.26719 20.1139 0.63713C20.2065 0.496892 20.3633 0.412506 20.5313 0.412506H24.6438C24.7989 0.412506 24.9453 0.484517 25.0399 0.607429C25.1346 0.730341 25.1668 0.890228 25.1272 1.04022C24.3461 3.99662 22.8278 6.0597 21.3659 8.04595C21.2857 8.155 21.2056 8.26381 21.1258 8.37254C23.1362 10.1498 24.7454 12.3372 25.8438 14.7894C25.9131 14.9441 25.8993 15.1233 25.8072 15.2656C25.715 15.4079 25.557 15.4938 25.3875 15.4938H20.8625C20.7426 15.4938 20.6267 15.4507 20.5359 15.3723C20.0647 14.9658 19.658 14.5199 19.2795 14.0891C19.2027 14.0017 19.1274 13.9153 19.053 13.83C18.7545 13.4877 18.471 13.1626 18.1663 12.8569C17.5425 12.2313 16.8617 11.7214 15.9188 11.4602V14.9938C15.9188 15.2456 15.7315 15.4581 15.4817 15.4898C10.4662 16.1261 7.09367 13.6656 4.81214 10.4952C2.6142 7.44089 1.38772 3.67742 0.607152 1.28221C0.583424 1.2094 0.560109 1.13786 0.537191 1.06764C0.487496 0.915374 0.513755 0.748519 0.607815 0.618879ZM1.70176 1.41251C2.48743 3.80879 3.65235 7.17149 5.62382 9.91108C7.69628 12.791 10.6183 14.9312 14.9188 14.5451V10.8438C14.9188 10.698 14.9824 10.5595 15.0929 10.4645C15.2035 10.3695 15.35 10.3275 15.4941 10.3495C17.0276 10.5833 18.037 11.311 18.8744 12.1509C19.2051 12.4826 19.5163 12.8395 19.8167 13.1842C19.8886 13.2667 19.9599 13.3485 20.0307 13.429C20.3623 13.8064 20.6907 14.1663 21.0519 14.4938H24.597C23.5094 12.3248 21.9896 10.3977 20.1282 8.83271C19.9274 8.66385 19.8913 8.36849 20.0455 8.15619C20.2167 7.92045 20.388 7.6873 20.5585 7.45528C21.9113 5.61458 23.2122 3.84453 23.9787 1.41251H20.8033C20.4708 1.9362 20.1676 2.48123 19.8644 3.04039C19.7985 3.16182 19.7326 3.28415 19.6663 3.40708C19.3863 3.92626 19.1007 4.45606 18.7942 4.97298C18.0318 6.25874 17.1142 7.51255 15.7088 8.51351C15.5564 8.6221 15.356 8.63645 15.1897 8.55069C15.0233 8.46493 14.9188 8.29343 14.9188 8.10626V1.41251H10.4973L11.2638 2.36064C11.3358 2.44962 11.375 2.56058 11.375 2.67501V8.95626C11.375 9.09892 11.3141 9.23478 11.2075 9.32966C11.101 9.42453 10.959 9.46938 10.8173 9.45291C10.0902 9.36842 9.46148 8.97637 8.91693 8.44089C8.37302 7.90605 7.88184 7.19785 7.42627 6.41367C6.78637 5.3122 6.18071 3.99355 5.58713 2.70118C5.38704 2.26553 5.18831 1.83286 4.99011 1.41251H1.70176Z" fill="#2C2C2C"/>
</svg>
