<svg width="26" height="20" viewBox="0 0 26 20" fill="none" xmlns="http://www.w3.org/2000/svg">
<path fill-rule="evenodd" clip-rule="evenodd" d="M22.8899 1.31159C22.6347 1.21979 22.2053 1.15271 21.7051 1.09669C21.1632 1.03599 20.4715 0.98215 19.6767 0.936393C18.086 0.844818 16.0634 0.784545 13.9615 0.768365C9.78001 0.736178 5.20624 0.877384 3.11222 1.31428C3.10288 1.31623 3.09359 1.31845 3.08437 1.32093C2.47051 1.48618 1.91083 1.8098 1.46137 2.25939C1.01191 2.70897 0.688449 3.26874 0.523371 3.88266C0.521705 3.88885 0.520158 3.89508 0.518732 3.90134C0.180011 5.38685 0.00405879 7.69402 -0.000107302 9.98025C-0.00427039 12.2648 0.162899 14.5934 0.536879 16.1173L0.536759 16.1173L0.53965 16.1281C0.704839 16.7418 1.02835 17.3015 1.4778 17.7509C1.92725 18.2004 2.48687 18.5239 3.10065 18.6891C3.10655 18.6906 3.11248 18.6921 3.11843 18.6935C3.88334 18.8696 5.31373 19.0001 7.03589 19.0895C8.77272 19.1796 10.8468 19.2297 12.9244 19.2355C15.0017 19.2413 17.0876 19.2029 18.8475 19.1155C20.592 19.029 22.0595 18.8928 22.8731 18.6916L22.8731 18.6917L22.883 18.6891C23.4968 18.5239 24.0564 18.2004 24.5059 17.7509C24.9553 17.3015 25.2789 16.7418 25.444 16.1281C25.445 16.1247 25.4458 16.1213 25.4467 16.1178C25.4476 16.1142 25.4484 16.1106 25.4492 16.107C25.8083 14.4978 25.9957 12.2256 25.9999 9.98006C26.0041 7.7367 25.8255 5.46972 25.4303 3.8759L25.4304 3.87588L25.4278 3.8663C25.2626 3.25252 24.9391 2.6929 24.4896 2.24345C24.0458 1.79964 23.4946 1.47863 22.8899 1.31159ZM3.33089 2.29021C2.89146 2.411 2.49089 2.64398 2.16858 2.96639C1.84518 3.28988 1.61183 3.69212 1.49151 4.13332C1.17849 5.51288 1.004 7.72905 0.999891 9.98207C0.995778 12.239 1.16285 14.4682 1.5067 15.8734C1.62679 16.316 1.86059 16.7195 2.18491 17.0438C2.50837 17.3673 2.91061 17.6007 3.35183 17.7211C4.02218 17.8737 5.36378 18.0013 7.08773 18.0908C8.8048 18.18 10.8622 18.2297 12.9271 18.2355C14.9923 18.2412 17.0599 18.203 18.798 18.1168C20.5472 18.03 21.9198 17.8962 22.628 17.7221C23.0707 17.6021 23.4744 17.3682 23.7988 17.0438C24.1219 16.7207 24.3552 16.3189 24.4757 15.8783C24.8113 14.3673 24.9958 12.18 24.9999 9.9782C25.004 7.77141 24.8267 5.60019 24.4609 4.12161C24.3409 3.67877 24.107 3.27503 23.7825 2.95055C23.4569 2.62496 23.0515 2.3906 22.6069 2.27094C22.5899 2.26635 22.5731 2.26087 22.5567 2.25452C22.4462 2.21185 22.1344 2.15102 21.5938 2.09047C21.0768 2.03256 20.4049 1.97997 19.6192 1.93474C18.049 1.84434 16.0435 1.78442 13.9538 1.76834C9.76202 1.73607 5.30916 1.88126 3.33089 2.29021Z" fill="#2C2C2C"/>
<path fill-rule="evenodd" clip-rule="evenodd" d="M10.3244 5.81985C10.4787 5.73044 10.669 5.73003 10.8237 5.81876L17.3531 9.56314C17.5085 9.65226 17.6044 9.81772 17.6044 9.99688C17.6044 10.176 17.5085 10.3415 17.3531 10.4306L10.8237 14.175C10.669 14.2637 10.4787 14.2633 10.3244 14.1739C10.17 14.0845 10.075 13.9196 10.075 13.7413V6.2525C10.075 6.07413 10.17 5.90927 10.3244 5.81985ZM11.075 7.11562V12.8781L16.0993 9.99688L11.075 7.11562Z" fill="#2C2C2C"/>
</svg>
