<svg width="84" height="76" viewBox="0 0 84 76" fill="none" xmlns="http://www.w3.org/2000/svg">
<rect x="0.25" y="0.75" width="83.5" height="74.5" stroke="#D9D9D9" stroke-width="0.5"/>
<path d="M42.4214 58.0705C42.4214 58.0705 46.056 59.3756 48.8654 60.1034C51.8909 60.8871 54.2731 61.4863 57.3526 61.9669C61.1796 62.564 63.4624 62.7832 67.2544 61.9669C72.4496 60.8484 74.7955 59.3119 78.7279 56.0376C80.3093 54.7208 82.5 52.3107 82.5 52.3107C82.5 52.3107 78.858 52.1482 76.5275 51.1248C72.2839 49.2614 73.5412 48.7531 67.7259 47.7367C66.594 47.5389 64.4253 47.0591 64.4253 47.0591M42.4214 58.0705C42.4214 58.0705 46.033 57.1086 49.6512 56.0376C52.9684 55.0557 56.3185 53.5928 59.2387 51.633C61.4128 50.174 64.4253 47.0591 64.4253 47.0591M42.4214 58.0705L46.1935 51.1248C46.1935 51.1248 50.3003 44.4254 51.0658 39.944C51.5882 36.886 51.6945 32.8289 51.6945 32.8289C51.6945 32.8289 54.9046 29.7162 57.3526 28.4243C60.094 26.9776 61.8633 26.5863 64.8968 26.222C67.0929 25.9583 71.3408 25.375 71.3408 25.375C71.3408 25.375 71.3408 27.7467 70.555 32.8289C69.7691 37.9111 65.054 45.7038 64.4253 47.0591" stroke="white" stroke-width="0.8"/>
<path d="M51.6945 32.8288C51.6945 32.8288 50.9643 27.8112 49.8084 24.6973C48.2639 20.5363 46.8776 18.3946 44.3074 14.8717C43.7148 14.0593 42.4214 12.5 42.4214 12.5" stroke="white" stroke-width="0.8"/>
<path d="M42.5786 58.0705C42.5786 58.0705 38.944 59.3756 36.1346 60.1034C33.1091 60.8871 30.7269 61.4863 27.6474 61.9669C23.8204 62.564 21.5376 62.7832 17.7456 61.9669C12.5504 60.8484 10.2045 59.3119 6.27213 56.0376C4.69069 54.7208 2.50003 52.3107 2.50003 52.3107C2.50003 52.3107 6.14197 52.1482 8.47252 51.1248C12.7161 49.2614 11.4588 48.7531 17.2741 47.7367C18.406 47.5389 20.5747 47.0591 20.5747 47.0591M42.5786 58.0705C42.5786 58.0705 38.967 57.1086 35.3488 56.0376C32.0316 55.0557 28.6815 53.5928 25.7613 51.633C23.5872 50.174 20.5747 47.0591 20.5747 47.0591M42.5786 58.0705L38.8065 51.1248C38.8065 51.1248 34.6997 44.4254 33.9342 39.944C33.4118 36.886 33.3055 32.8289 33.3055 32.8289C33.3055 32.8289 30.0954 29.7162 27.6474 28.4243C24.906 26.9776 23.1367 26.5863 20.1032 26.222C17.9071 25.9583 13.6592 25.375 13.6592 25.375C13.6592 25.375 13.6592 27.7467 14.445 32.8289C15.2309 37.9111 19.946 45.7038 20.5747 47.0591" stroke="white" stroke-width="0.8"/>
<path d="M33.3055 32.8288C33.3055 32.8288 34.0357 27.8112 35.1916 24.6973C36.7361 20.5363 38.1224 18.3946 40.6926 14.8717C41.2852 14.0593 42.5786 12.5 42.5786 12.5" stroke="white" stroke-width="0.8"/>
<circle cx="21" cy="33" r="2.25" stroke="white" stroke-width="0.5"/>
<circle cx="63" cy="33" r="2.25" stroke="white" stroke-width="0.5"/>
</svg>
