<svg width="16" height="12" viewBox="0 0 16 12" fill="none" xmlns="http://www.w3.org/2000/svg">
<path d="M1.84583 11.8332C1.4625 11.8332 1.1425 11.7048 0.885833 11.4482C0.628611 11.1909 0.5 10.8707 0.5 10.4873V1.51234C0.5 1.129 0.628611 0.809004 0.885833 0.552337C1.1425 0.295115 1.4625 0.166504 1.84583 0.166504H14.1542C14.5375 0.166504 14.8575 0.295115 15.1142 0.552337C15.3714 0.809004 15.5 1.129 15.5 1.51234V10.4873C15.5 10.8707 15.3717 11.1907 15.115 11.4473C14.8578 11.7046 14.5375 11.8332 14.1542 11.8332H1.84583ZM8 6.09567L14.6667 1.73734L14.41 0.999837L8 5.1665L1.59 0.999837L1.33333 1.73734L8 6.09567Z" fill="#EFEBF7"/>
</svg>
