<svg width="15" height="15" viewBox="0 0 15 15" fill="none" xmlns="http://www.w3.org/2000/svg">
<path d="M13.5236 10.3998L10.2034 8.91406C10.0747 8.85835 9.93417 8.83561 9.79446 8.84789C9.65475 8.86016 9.52031 8.90707 9.40329 8.98437C9.39393 8.9903 9.38501 8.99688 9.37657 9.00406L7.63282 10.4905C7.59402 10.5141 7.54997 10.5279 7.50459 10.5304C7.45921 10.533 7.4139 10.5244 7.37266 10.5052C6.23079 9.95398 5.04884 8.78116 4.49759 7.65265C4.47809 7.61173 4.46903 7.56661 4.47124 7.52133C4.47345 7.47605 4.48685 7.43203 4.51024 7.3932L6.00087 5.62062C6.0079 5.61218 6.01423 5.60304 6.02056 5.5939C6.09761 5.47704 6.14438 5.34285 6.15666 5.20341C6.16893 5.06397 6.14632 4.92367 6.09087 4.79515L4.60235 1.48062C4.53049 1.31274 4.40611 1.17271 4.24788 1.08156C4.08965 0.990398 3.90612 0.953033 3.72485 0.975071C2.84002 1.09173 2.02791 1.52651 1.44021 2.19818C0.852507 2.86986 0.529408 3.7325 0.531258 4.62499C0.531258 10.0531 4.94688 14.4687 10.375 14.4687C11.2675 14.4706 12.1301 14.1475 12.8018 13.5598C13.4735 12.9721 13.9083 12.16 14.0249 11.2751C14.0468 11.0947 14.0098 10.912 13.9195 10.7543C13.8292 10.5965 13.6903 10.4722 13.5236 10.3998ZM13.4688 11.2048C13.3695 11.9542 13.0007 12.6417 12.4313 13.1389C11.8619 13.6361 11.1309 13.9089 10.375 13.9062C5.25766 13.9062 1.09376 9.74234 1.09376 4.62499C1.09114 3.8691 1.36392 3.13812 1.8611 2.56873C2.35827 1.99935 3.04581 1.63053 3.79516 1.53124C3.8064 1.53054 3.81767 1.53054 3.82891 1.53124C3.8844 1.53172 3.93851 1.54859 3.98442 1.57974C4.03034 1.6109 4.06602 1.65494 4.08696 1.70632L5.57126 5.02085C5.58858 5.06136 5.59614 5.10537 5.59333 5.14934C5.59052 5.19331 5.57742 5.236 5.55509 5.27398L4.06516 7.04585C4.05813 7.05499 4.0511 7.06343 4.04477 7.07327C3.9654 7.19466 3.91865 7.33445 3.90904 7.47917C3.89944 7.62389 3.92729 7.76863 3.98993 7.89945C4.60095 9.1503 5.86095 10.4012 7.12587 11.0122C7.25757 11.0744 7.40314 11.1015 7.54842 11.0908C7.69369 11.08 7.83371 11.0319 7.95485 10.951L7.98087 10.9313L9.72673 9.44632C9.76407 9.4235 9.80631 9.40989 9.84995 9.40658C9.89359 9.40328 9.93739 9.4104 9.97774 9.42734L13.2972 10.9151C13.3532 10.9385 13.4002 10.9793 13.4311 11.0315C13.462 11.0837 13.4752 11.1445 13.4688 11.2048Z" fill="#282829"/>
</svg>
