<svg width="126" height="17" viewBox="0 0 126 17" fill="none" xmlns="http://www.w3.org/2000/svg">
<path d="M9 0L10.9084 5.87336L17.084 5.87336L12.0878 9.50329L13.9962 15.3766L9 11.7467L4.00383 15.3766L5.91219 9.50329L0.916019 5.87336L7.09163 5.87336L9 0Z" fill="#8D7F7F"/>
<path d="M36 0L37.9084 5.87336L44.084 5.87336L39.0878 9.50329L40.9962 15.3766L36 11.7467L31.0038 15.3766L32.9122 9.50329L27.916 5.87336L34.0916 5.87336L36 0Z" fill="#8D7F7F"/>
<path d="M63 0L64.9084 5.87336L71.084 5.87336L66.0878 9.50329L67.9962 15.3766L63 11.7467L58.0038 15.3766L59.9122 9.50329L54.916 5.87336L61.0916 5.87336L63 0Z" fill="#8D7F7F"/>
<path d="M90 0L91.9084 5.87336L98.084 5.87336L93.0878 9.50329L94.9962 15.3766L90 11.7467L85.0038 15.3766L86.9122 9.50329L81.916 5.87336L88.0916 5.87336L90 0Z" fill="#8D7F7F"/>
<path d="M117 0L118.908 5.87336L125.084 5.87336L120.088 9.50329L121.996 15.3766L117 11.7467L112.004 15.3766L113.912 9.50329L108.916 5.87336L115.092 5.87336L117 0Z" fill="#8D7F7F"/>
</svg>
