<svg width="21" height="22" viewBox="0 0 21 22" fill="none" xmlns="http://www.w3.org/2000/svg">
<path fill-rule="evenodd" clip-rule="evenodd" d="M10.5994 0.645845L10.6005 0.645844C12.3379 0.647509 14.0476 1.08638 15.5709 1.92206C20.5848 4.67244 22.4186 10.9659 19.6688 15.9796C16.9468 20.9426 10.752 22.7902 5.76439 20.1604L1.28446 20.8894C1.12575 20.9152 0.964305 20.8631 0.850603 20.7494C0.736902 20.6357 0.684822 20.4742 0.710648 20.3155L1.43966 15.8354C0.658624 14.3514 0.249012 12.699 0.247199 11.0203C0.240938 5.2968 4.87604 0.652105 10.5994 0.645845ZM15.09 2.7988C13.7139 2.04393 12.1696 1.64743 10.6 1.64584C5.42907 1.65178 1.24154 5.84822 1.2472 11.0192C1.24889 12.5884 1.64493 14.1319 2.39891 15.5081C2.45245 15.6058 2.47181 15.7187 2.45392 15.8286L1.80918 19.7908L5.77135 19.1461C5.88143 19.1282 5.99433 19.1476 6.09211 19.2012C10.6213 21.6855 16.3078 20.0283 18.792 15.4987C21.2764 10.9691 19.6195 5.2835 15.09 2.7988ZM5.65423 5.12411C5.66046 5.12388 5.66668 5.12376 5.67291 5.12376H8.35874C8.61291 5.12376 8.85666 5.22473 9.03638 5.40445C9.21611 5.58417 9.31707 5.82793 9.31707 6.08209V6.09439C9.30378 6.63502 9.39322 7.17318 9.58089 7.68023C9.71622 7.97447 9.74424 8.30715 9.65953 8.62031C9.57694 8.92563 9.39247 9.19297 9.1375 9.37844L8.49689 10.0034C8.86243 10.6434 9.31468 11.2306 9.84125 11.7479L9.85171 11.7585C10.3643 12.2931 10.948 12.7536 11.5859 13.1275L12.2402 12.4568C12.4834 12.2136 12.7349 12.012 13.0454 11.9413C13.3616 11.8694 13.6462 11.9559 13.876 12.0356L13.8878 12.0397C14.4002 12.232 14.9447 12.324 15.4919 12.3106C15.5037 12.3103 15.5156 12.3104 15.5274 12.311C15.7716 12.3223 16.0028 12.4245 16.1756 12.5973C16.3485 12.7702 16.4506 13.0013 16.462 13.2455C16.4623 13.2532 16.4625 13.261 16.4625 13.2688V15.9546C16.4625 15.9595 16.4624 15.9645 16.4623 15.9694C16.4622 15.9722 16.4621 15.975 16.462 15.9779C16.4506 16.222 16.3485 16.4532 16.1756 16.626C16.0028 16.7989 15.7716 16.901 15.5274 16.9124C15.5124 16.9131 15.4974 16.9131 15.4824 16.9125C12.6621 16.7896 9.98871 15.6204 7.98382 13.633L7.98118 13.6304C5.9904 11.6273 4.82049 8.95228 4.70127 6.1307C4.70091 6.12223 4.70077 6.11375 4.70084 6.10527C4.70305 5.85049 4.80335 5.60636 4.98091 5.42363C5.15847 5.2409 5.39962 5.13363 5.65423 5.12411ZM5.70193 6.12376C5.81881 8.6824 6.88337 11.1066 8.68914 12.9241C10.5023 14.7208 12.9146 15.7838 15.4625 15.9104V13.3113C14.8075 13.3207 14.1564 13.2079 13.5426 12.9784C13.328 12.9043 13.2833 12.9128 13.2673 12.9164C13.2455 12.9214 13.1629 12.9487 12.9494 13.1619L12.035 14.0992C11.8805 14.2575 11.6403 14.2955 11.4444 14.1926C10.5864 13.7415 9.8066 13.1551 9.13509 12.456C8.44722 11.7791 7.87237 10.9961 7.43245 10.1371C7.33251 9.94192 7.37138 9.70441 7.52833 9.55129L8.46791 8.63462C8.48945 8.61361 8.51284 8.59459 8.53779 8.57778C8.61453 8.52611 8.67006 8.44851 8.69422 8.3592C8.71837 8.2699 8.70953 8.17488 8.66931 8.09157C8.66273 8.07795 8.65677 8.06403 8.65146 8.04986C8.42041 7.43423 8.30675 6.78093 8.31617 6.12376H5.70193Z" fill="#2C2C2C"/>
</svg>
