<svg width="42" height="26" viewBox="0 0 42 26" fill="none" xmlns="http://www.w3.org/2000/svg">
<path fill-rule="evenodd" clip-rule="evenodd" d="M35.8205 6.93741H35.4205L35.3661 6.54113L35.8205 6.47873V6.93741ZM32.5605 17.4996C32.5973 17.4318 32.6376 17.358 32.681 17.2783C32.7388 17.1723 32.8021 17.056 32.8706 16.9299C33.1429 16.4279 33.4822 15.7926 33.8245 15.0974C34.5029 13.7197 35.2162 12.0621 35.4229 10.7255C35.6208 9.44565 35.7202 8.50416 35.7701 7.87986C35.7951 7.56771 35.8077 7.33486 35.814 7.17867C35.8172 7.10057 35.8188 7.04164 35.8196 7.00154L35.8204 6.95547L35.8205 6.94296L35.8205 6.93932L35.8205 6.93741C35.8205 6.93734 35.8205 6.93741 35.4205 6.93741C35.3661 6.54113 35.3661 6.54113 35.3661 6.54113L35.0176 6.58869C34.8015 6.61807 34.502 6.65861 34.1682 6.70326C33.4999 6.79266 32.6968 6.89821 32.1508 6.96378C30.6035 7.14957 29.6673 7.35493 28.2397 8.10831C27.5869 8.45281 26.852 9.02752 26.2942 9.50031C26.012 9.7395 25.769 9.95794 25.5964 10.1167C25.5101 10.1961 25.4412 10.2608 25.3937 10.3058L25.3388 10.358L25.3243 10.3719L25.3204 10.3757L25.3193 10.3767C25.3193 10.3767 25.3189 10.3772 25.5973 10.6644L25.3193 10.3767L25.2017 10.4908L25.1974 10.6539L25.1974 10.655L25.1973 10.659L25.1968 10.6756L25.1947 10.7411C25.1928 10.7985 25.1898 10.8825 25.1853 10.9883C25.1763 11.1999 25.1617 11.4981 25.1389 11.8435C25.0933 12.537 25.0158 13.4103 24.8887 14.1545C24.7081 15.2118 24.1234 16.5637 23.5639 17.6779C23.2871 18.229 23.0219 18.7115 22.8259 19.0562C22.728 19.2284 22.6475 19.3659 22.5917 19.46C22.5638 19.5071 22.5421 19.5433 22.5275 19.5675L22.511 19.5948L22.5069 19.6014L22.506 19.6029L22.5003 19.6122L20.3867 23.504L20.8256 23.6616L20.8313 23.6636L20.8472 23.6693L20.9082 23.691C20.9612 23.7098 21.0384 23.7369 21.1353 23.7706C21.3291 23.838 21.6021 23.9316 21.9192 24.0366C22.5519 24.2462 23.3673 24.5035 24.0825 24.6888C25.5965 25.081 26.804 25.385 28.3647 25.6285C30.2986 25.9303 31.4959 26.0475 33.4615 25.6244C34.7869 25.339 35.7673 24.9962 36.6725 24.5072C37.5731 24.0206 38.3832 23.3977 39.3699 22.5761C39.7824 22.2327 40.266 21.7542 40.6404 21.3688C40.829 21.1747 40.9926 21.0015 41.109 20.8767C41.1672 20.8143 41.2137 20.764 41.2458 20.7291L41.2828 20.6888L41.2958 20.6746L41.8693 20.0436L41.018 20.0056L41.0142 20.0055L41.0004 20.0048C40.9879 20.0041 40.969 20.003 40.9442 20.0015C40.8946 19.9984 40.8217 19.9935 40.7303 19.9859C40.5471 19.9708 40.2908 19.9454 39.9995 19.9045C39.4083 19.8216 38.7058 19.6793 38.1746 19.4461C37.4705 19.1369 37.1091 18.9224 36.7874 18.7314C36.6251 18.635 36.4728 18.5446 36.2917 18.4511C35.7655 18.1793 35.1478 17.9804 33.6819 17.7242C33.4067 17.6761 33.0003 17.5928 32.6585 17.5204C32.6251 17.5134 32.5924 17.5064 32.5605 17.4996ZM31.6309 17.5467C31.7056 17.396 31.8348 17.1591 31.9932 16.8684C32.0481 16.7678 32.1065 16.6607 32.1674 16.5485C32.4378 16.0499 32.7713 15.4252 33.1068 14.744C33.784 13.3688 34.446 11.8077 34.6323 10.6032C34.8273 9.34196 34.9243 8.41998 34.9726 7.81608C34.9856 7.654 34.9951 7.51482 35.0019 7.39816C34.8008 7.42544 34.5492 7.45942 34.2743 7.49619C33.6061 7.58559 32.7982 7.69179 32.2462 7.75807C30.7599 7.93653 29.9269 8.1225 28.6131 8.81583C28.0419 9.11727 27.3623 9.6437 26.8115 10.1106C26.5394 10.3412 26.3046 10.5522 26.138 10.7055C26.0807 10.7582 26.0315 10.8041 25.9917 10.8414C25.9899 10.8917 25.9875 10.9523 25.9846 11.0221C25.9754 11.2386 25.9604 11.5432 25.9372 11.896C25.891 12.599 25.8113 13.5044 25.6773 14.2892C25.4751 15.4727 24.8417 16.916 24.2788 18.0369C23.9944 18.6032 23.7223 19.0982 23.5214 19.4516C23.4208 19.6285 23.3379 19.7702 23.2799 19.868C23.2509 19.9169 23.2281 19.9549 23.2125 19.9808L23.1945 20.0105L23.1935 20.012L21.7587 22.6541C21.8303 22.6344 21.9053 22.6137 21.9833 22.5922C22.6596 22.4054 23.5608 22.152 24.4622 21.8852C26.0893 21.4035 27.7259 20.6877 29.1465 19.7343C29.6613 19.3888 30.2898 18.8362 30.8001 18.3576C31.0528 18.1206 31.2721 17.906 31.4282 17.7506C31.5063 17.673 31.5683 17.6103 31.6108 17.5672L31.6309 17.5467ZM32.0929 18.2173C32.0631 18.2473 32.0295 18.2809 31.9925 18.3177C31.8322 18.4772 31.6071 18.6976 31.3473 18.9411C30.8328 19.4237 30.1646 20.0145 29.5923 20.3986C28.0927 21.4049 26.3793 22.152 24.6892 22.6523C23.8375 22.9044 22.987 23.1443 22.3245 23.3279C22.9246 23.5246 23.6488 23.7501 24.2831 23.9144C25.7946 24.3059 26.9693 24.6011 28.4881 24.8381C30.3812 25.1335 31.4666 25.2355 33.2931 24.8423C34.5653 24.5684 35.4701 24.2475 36.2923 23.8033C37.1192 23.3566 37.8787 22.7768 38.858 21.9613C39.2363 21.6463 39.6957 21.1931 40.0667 20.8113C40.0933 20.7839 40.1195 20.7568 40.1451 20.7303C40.0633 20.7204 39.9774 20.7093 39.8884 20.6968C39.2777 20.6112 38.4871 20.457 37.853 20.1786C37.11 19.8523 36.6601 19.5869 36.3189 19.3856C36.1722 19.2991 36.0457 19.2244 35.9246 19.1619C35.5077 18.9466 34.9859 18.7643 33.5441 18.5123C33.2534 18.4615 32.8346 18.3754 32.4928 18.3031C32.3393 18.2706 32.2 18.2406 32.0929 18.2173Z" fill="#ffffff"/>
<path fill-rule="evenodd" clip-rule="evenodd" d="M21.6322 0.689043C21.8307 0.934486 22.0722 1.238 22.227 1.45008C23.5233 3.22708 24.2393 4.33129 25.0293 6.45942C25.3298 7.26898 25.5705 8.31114 25.7349 9.13729C25.8176 9.55316 25.882 9.91963 25.9258 10.1823C25.9477 10.3137 25.9645 10.4192 25.9758 10.4922L25.9887 10.5764L25.992 10.5987L25.9931 10.6061C25.9931 10.6062 25.9932 10.6068 25.5973 10.6644L25.2015 10.722L25.2006 10.7156L25.1975 10.6952L25.1852 10.6148C25.1743 10.5445 25.1581 10.4419 25.1367 10.3138C25.094 10.0574 25.031 9.69936 24.9502 9.2934C24.7876 8.47591 24.5567 7.48519 24.2793 6.73782C23.5247 4.70499 22.8544 3.66752 21.5807 1.92157C21.4391 1.72748 21.2091 1.43807 21.0102 1.19213C20.9116 1.07027 20.8222 0.96093 20.7574 0.882055L20.6807 0.788988L20.6533 0.75584L20.9608 0.49998C21.2687 0.244611 21.2687 0.244618 21.2687 0.244629L21.2976 0.279561L21.3755 0.374246C21.4413 0.454252 21.532 0.565216 21.6322 0.689043Z" fill="#ffffff"/>
<path fill-rule="evenodd" clip-rule="evenodd" d="M6.17952 6.93741H6.57952L6.63393 6.54113L6.17952 6.47873V6.93741ZM9.43947 17.4996C9.40267 17.4318 9.36242 17.358 9.31897 17.2783C9.26124 17.1723 9.19786 17.056 9.12943 16.9299C8.85713 16.4279 8.5178 15.7926 8.17548 15.0974C7.49706 13.7197 6.78382 12.0621 6.57714 10.7255C6.37924 9.44565 6.27984 8.50416 6.22991 7.87986C6.20494 7.56771 6.19234 7.33486 6.18599 7.17867C6.18281 7.10057 6.18119 7.04164 6.18037 7.00154L6.17963 6.95547L6.17953 6.94296L6.17952 6.93932L6.17952 6.93741C6.17952 6.93734 6.17952 6.93741 6.57952 6.93741C6.63393 6.54113 6.63392 6.54113 6.63393 6.54113L6.98243 6.58869C7.1985 6.61807 7.49802 6.65861 7.83179 6.70326C8.50006 6.79266 9.30316 6.89821 9.84921 6.96378C11.3965 7.14957 12.3327 7.35493 13.7603 8.10831C14.4131 8.45281 15.148 9.02752 15.7058 9.50031C15.988 9.7395 16.231 9.95794 16.4036 10.1167C16.4899 10.1961 16.5588 10.2608 16.6063 10.3058L16.6612 10.358L16.6757 10.3719L16.6796 10.3757L16.6807 10.3767C16.6807 10.3767 16.6811 10.3772 16.4027 10.6644L16.6807 10.3767L16.7983 10.4908L16.8026 10.6539L16.8026 10.655L16.8027 10.659L16.8032 10.6756L16.8053 10.7411C16.8072 10.7985 16.8102 10.8825 16.8147 10.9883C16.8237 11.1999 16.8383 11.4981 16.8611 11.8435C16.9067 12.537 16.9842 13.4103 17.1113 14.1545C17.2919 15.2118 17.8766 16.5637 18.4361 17.6779C18.7129 18.229 18.9781 18.7115 19.1741 19.0562C19.272 19.2284 19.3525 19.3659 19.4083 19.46C19.4362 19.5071 19.4579 19.5433 19.4725 19.5675L19.489 19.5948L19.4931 19.6014L19.494 19.6029L19.4997 19.6122L21.6133 23.504L21.1744 23.6616L21.1687 23.6636L21.1528 23.6693L21.0918 23.691C21.0388 23.7098 20.9616 23.7369 20.8647 23.7706C20.6709 23.838 20.3979 23.9316 20.0808 24.0366C19.4481 24.2462 18.6327 24.5035 17.9175 24.6888C16.4035 25.081 15.196 25.385 13.6353 25.6285C11.7014 25.9303 10.5041 26.0475 8.53855 25.6244C7.21314 25.339 6.23266 24.9962 5.32746 24.5072C4.4269 24.0206 3.61684 23.3977 2.63005 22.5761C2.21762 22.2327 1.73395 21.7542 1.35957 21.3688C1.17096 21.1747 1.00745 21.0015 0.891026 20.8767C0.832787 20.8143 0.786255 20.764 0.754173 20.7291L0.717215 20.6888L0.704245 20.6746L0.130724 20.0436L0.982016 20.0056L0.985781 20.0055L0.99958 20.0048C1.01206 20.0041 1.03099 20.003 1.05578 20.0015C1.10537 19.9984 1.17829 19.9935 1.26975 19.9859C1.45288 19.9708 1.70918 19.9454 2.00055 19.9045C2.59169 19.8216 3.2942 19.6793 3.82537 19.4461C4.52955 19.1369 4.89086 18.9224 5.21259 18.7314C5.37493 18.635 5.52719 18.5446 5.70834 18.4511C6.23451 18.1793 6.85218 17.9804 8.31811 17.7242C8.59333 17.6761 8.99966 17.5928 9.34154 17.5204C9.37492 17.5134 9.40763 17.5064 9.43947 17.4996ZM10.3691 17.5467C10.2944 17.396 10.1652 17.1591 10.0068 16.8684C9.9519 16.7678 9.8935 16.6607 9.83264 16.5485C9.56221 16.0499 9.22865 15.4252 8.89318 14.744C8.216 13.3688 7.55399 11.8077 7.36775 10.6032C7.17272 9.34196 7.07566 8.41998 7.02736 7.81608C7.01439 7.654 7.00495 7.51482 6.99806 7.39816C7.19917 7.42544 7.45084 7.45942 7.72572 7.49619C8.39394 7.58559 9.20185 7.69179 9.75383 7.75807C11.2401 7.93653 12.0731 8.1225 13.3869 8.81583C13.9581 9.11727 14.6377 9.6437 15.1885 10.1106C15.4606 10.3412 15.6954 10.5522 15.862 10.7055C15.9193 10.7582 15.9685 10.8041 16.0083 10.8414C16.0101 10.8917 16.0125 10.9523 16.0154 11.0221C16.0246 11.2386 16.0396 11.5432 16.0628 11.896C16.109 12.599 16.1887 13.5044 16.3227 14.2892C16.5249 15.4727 17.1583 16.916 17.7212 18.0369C18.0056 18.6032 18.2777 19.0982 18.4786 19.4516C18.5792 19.6285 18.6621 19.7702 18.7201 19.868C18.7491 19.9169 18.7719 19.9549 18.7875 19.9808L18.8055 20.0105L18.8065 20.012L20.2413 22.6541C20.1697 22.6344 20.0947 22.6137 20.0167 22.5922C19.3404 22.4054 18.4392 22.152 17.5378 21.8852C15.9107 21.4035 14.2741 20.6877 12.8535 19.7343C12.3387 19.3888 11.7102 18.8362 11.1999 18.3576C10.9472 18.1206 10.7279 17.906 10.5718 17.7506C10.4937 17.673 10.4317 17.6103 10.3892 17.5672L10.3691 17.5467ZM9.90709 18.2173C9.93687 18.2473 9.97046 18.2809 10.0075 18.3177C10.1678 18.4772 10.3929 18.6976 10.6527 18.9411C11.1672 19.4237 11.8354 20.0145 12.4077 20.3986C13.9073 21.4049 15.6207 22.152 17.3108 22.6523C18.1625 22.9044 19.013 23.1443 19.6755 23.3279C19.0754 23.5246 18.3512 23.7501 17.7169 23.9144C16.2054 24.3059 15.0307 24.6011 13.5119 24.8381C11.6188 25.1335 10.5334 25.2355 8.70692 24.8423C7.43473 24.5684 6.52994 24.2475 5.70771 23.8033C4.88085 23.3566 4.12135 22.7768 3.14195 21.9613C2.76366 21.6463 2.30431 21.1931 1.93335 20.8113C1.90665 20.7839 1.88048 20.7568 1.85487 20.7303C1.93672 20.7204 2.02262 20.7093 2.11165 20.6968C2.72231 20.6112 3.51292 20.457 4.14703 20.1786C4.89 19.8523 5.33994 19.5869 5.68113 19.3856C5.82778 19.2991 5.95434 19.2244 6.07545 19.1619C6.4923 18.9466 7.01412 18.7643 8.45585 18.5123C8.74656 18.4615 9.16538 18.3754 9.50717 18.3031C9.66069 18.2706 9.79997 18.2406 9.90709 18.2173Z" fill="#ffffff"/>
<path fill-rule="evenodd" clip-rule="evenodd" d="M20.3678 0.689043C20.1693 0.934486 19.9278 1.238 19.773 1.45008C18.4767 3.22708 17.7607 4.33129 16.9707 6.45942C16.6702 7.26898 16.4295 8.31114 16.2651 9.13729C16.1824 9.55316 16.118 9.91963 16.0742 10.1823C16.0523 10.3137 16.0355 10.4192 16.0242 10.4922L16.0113 10.5764L16.008 10.5987L16.0069 10.6061C16.0069 10.6062 16.0068 10.6068 16.4027 10.6644L16.7985 10.722L16.7994 10.7156L16.8025 10.6952L16.8148 10.6148C16.8257 10.5445 16.8419 10.4419 16.8633 10.3138C16.906 10.0574 16.969 9.69936 17.0498 9.2934C17.2124 8.47591 17.4433 7.48519 17.7207 6.73782C18.4753 4.70499 19.1456 3.66752 20.4193 1.92157C20.5609 1.72748 20.7909 1.43807 20.9898 1.19213C21.0884 1.07027 21.1778 0.96093 21.2426 0.882055L21.3193 0.788988L21.3467 0.75584L21.0392 0.49998C20.7313 0.244611 20.7313 0.244618 20.7313 0.244629L20.7024 0.279561L20.6245 0.374246C20.5587 0.454252 20.468 0.565216 20.3678 0.689043Z" fill="#ffffff"/>
</svg>
